<svg xmlns="http://www.w3.org/2000/svg" viewBox="0 0 1845 419">
  <path d="M73.63 211.94L73.63 117.56Q73.63 108.98 72.86 104.91Q72.09 100.84 71.10 99.52Q70.11 98.20 69.01 98.20L69.01 98.20L56.25 98.20Q54.49 98.20 54.49 94.02L54.49 94.02Q54.49 92.92 54.82 91.93Q55.15 90.94 56.25 90.94L56.25 90.94Q63.29 90.94 70.33 91.05Q77.37 91.16 83.97 91.16L83.97 91.16Q93.43 91.16 98.82 91.05Q104.21 90.94 107.73 90.72Q111.25 90.50 114.77 90.50L114.77 90.50Q115.87 90.50 116.20 91.60Q116.53 92.70 116.53 94.02L116.53 94.02Q116.53 95.56 116.09 96.77Q115.65 97.98 114.77 97.98L114.77 97.98L105.31 97.98Q99.81 97.98 98.05 100.18Q96.29 102.38 96.29 108.10L96.29 108.10L96.29 209.96Q96.29 225.58 95.19 238.78Q94.09 251.98 90.35 261.22L90.35 261.22Q85.95 271.78 78.14 280.36Q70.33 288.94 59.99 294Q49.65 299.06 37.33 299.06L37.33 299.06Q35.79 299.06 33.04 298.51Q30.29 297.96 27.98 296.20Q25.67 294.44 25.67 291.14L25.67 291.14Q25.67 282.78 35.35 279.04L35.35 279.04Q40.19 281.90 46.35 283.33Q52.51 284.76 56.47 284.76L56.47 284.76Q60.65 284.76 63.07 282.78Q65.49 280.80 67.03 277.94L67.03 277.94Q69.23 273.32 70.55 264.52Q71.87 255.72 72.53 245.60Q73.19 235.48 73.41 226.35Q73.63 217.22 73.63 211.94L73.63 211.94ZM222.35 88.52L222.35 88.52Q238.85 88.52 253.37 94.46Q267.89 100.40 278.89 110.96Q289.89 121.52 296.16 135.38Q302.43 149.24 302.43 165.08L302.43 165.08Q302.43 181.14 296.16 195Q289.89 208.86 278.89 219.42Q267.89 229.98 253.37 235.92Q238.85 241.86 222.35 241.86L222.35 241.86Q205.85 241.86 191.33 235.92Q176.81 229.98 165.81 219.42Q154.81 208.86 148.54 195Q142.27 181.14 142.27 165.08L142.27 165.08Q142.27 149.24 148.54 135.38Q154.81 121.52 165.81 110.96Q176.81 100.40 191.33 94.46Q205.85 88.52 222.35 88.52ZM222.35 98.64L222.35 98.64Q206.73 98.64 194.96 107.55Q183.19 116.46 176.59 131.53Q169.99 146.60 169.99 165.08L169.99 165.08Q169.99 183.56 176.59 198.74Q183.19 213.92 194.96 222.83Q206.73 231.74 222.35 231.74L222.35 231.74Q237.97 231.74 249.74 222.83Q261.51 213.92 268.11 198.74Q274.71 183.56 274.71 165.08L274.71 165.08Q274.71 146.60 268.11 131.53Q261.51 116.46 249.74 107.55Q237.97 98.64 222.35 98.64ZM431.79 201.38L431.79 201.38Q431.79 213.48 424.42 222.61Q417.05 231.74 405.06 236.80Q393.07 241.86 379.21 241.86L379.21 241.86Q369.75 241.86 361.50 239.66Q353.25 237.46 348.19 235.26L348.19 235.26L349.95 239.66Q350.61 241.20 348.85 242.30Q347.09 243.40 345.11 243.40L345.11 243.40Q343.35 243.40 342.69 242.30L342.69 242.30Q340.93 237.46 339.06 230.31Q337.19 223.16 335.87 215.35Q334.55 207.54 334.11 200.94L334.11 200.94Q334.11 199.84 335.21 199.29Q336.31 198.74 337.85 198.74L337.85 198.74Q338.95 198.74 340.05 199.07Q341.15 199.40 341.37 200.28L341.37 200.28Q342.69 204.46 345.66 210.07Q348.63 215.68 353.47 221.07Q358.31 226.46 365.24 229.98Q372.17 233.50 380.97 233.50L380.97 233.50Q394.61 233.50 401.65 226.13Q408.69 218.76 408.69 209.96L408.69 209.96Q408.69 199.40 403.85 192.14Q399.01 184.88 391.20 179.60Q383.39 174.32 374.81 169.48Q366.23 164.64 358.42 159.14Q350.61 153.64 345.77 145.83Q340.93 138.02 340.93 126.80L340.93 126.80Q340.93 116.24 347.42 107.55Q353.91 98.86 365.35 93.69Q376.79 88.52 391.53 88.52L391.53 88.52Q400.55 88.52 406.60 90.17Q412.65 91.82 412.65 91.82L412.65 91.82Q412.43 91.16 412.10 89.18Q411.77 87.20 411.77 86.76L411.77 86.76Q411.55 85.66 412.65 85.11Q413.75 84.56 415.07 84.56L415.07 84.56Q417.71 84.56 418.37 86.32L418.37 86.32Q421.01 95.56 422.55 105.02Q424.09 114.48 424.31 121.30L424.31 121.30Q424.09 121.96 422.66 122.29Q421.23 122.62 419.69 122.62L419.69 122.62Q417.71 122.62 417.05 121.96L417.05 121.96Q415.51 116.46 412.65 110.74Q409.79 105.02 404.07 100.95Q398.35 96.88 388.23 96.88L388.23 96.88Q378.11 96.88 372.61 100.51Q367.11 104.14 365.02 109.53Q362.93 114.92 362.93 120.20L362.93 120.20Q362.93 129 367.88 135.16Q372.83 141.32 380.75 146.16Q388.67 151 397.36 155.84Q406.05 160.68 413.97 166.62Q421.89 172.56 426.84 180.92Q431.79 189.28 431.79 201.38ZM507.47 109.64L507.47 161.56Q517.15 161.34 526.17 160.79Q535.19 160.24 541.35 159.58Q547.51 158.92 548.17 158.48L548.17 158.48L550.37 145.50Q550.59 143.96 553.89 143.96L553.89 143.96Q555.21 143.96 556.31 144.40Q557.41 144.84 557.19 145.94L557.19 145.94Q556.53 151 556.31 155.18Q556.09 159.36 556.09 164.42L556.09 164.42Q556.09 169.26 556.31 174.43Q556.53 179.60 557.19 184.66L557.19 184.66Q557.41 185.54 556.09 185.98Q554.77 186.42 553.23 186.42L553.23 186.42Q550.37 186.42 550.37 185.10L550.37 185.10L547.95 171.90Q547.29 171.46 541.35 170.80Q535.41 170.14 526.39 169.48Q517.37 168.82 507.47 168.60L507.47 168.60L507.47 210.84Q507.47 219.20 508.24 223.38Q509.01 227.56 510.11 228.88Q511.21 230.20 512.09 230.20L512.09 230.20L523.31 230.20Q537.61 229.98 550.70 227.56Q563.79 225.14 569.95 220.96L569.95 220.96L571.49 208.86Q571.71 207.98 572.92 207.54Q574.13 207.10 575.67 207.10L575.67 207.10Q578.97 207.10 578.75 208.86L578.75 208.86Q577.65 217 577.21 226.24Q576.77 235.48 576.77 243.84L576.77 243.84Q576.77 245.38 573.47 245.38L573.47 245.38Q572.15 245.38 571.05 245.05Q569.95 244.72 569.95 243.84L569.95 243.84L569.95 239L515.61 239Q501.53 239 492.84 239.11Q484.15 239.22 479.20 239.22Q474.25 239.22 471.50 239.33Q468.75 239.44 466.33 239.44L466.33 239.44Q465.45 239.44 465.01 238.34Q464.57 237.24 464.57 235.92L464.57 235.92Q464.57 234.38 465.01 233.17Q465.45 231.96 466.33 231.96L466.33 231.96L475.79 231.96Q481.51 231.96 483.16 229.76Q484.81 227.56 484.81 221.84L484.81 221.84L484.81 117.56Q484.81 108.98 484.04 104.91Q483.27 100.84 482.28 99.52Q481.29 98.20 480.19 98.20L480.19 98.20L467.43 98.20Q465.67 98.20 465.67 94.02L465.67 94.02Q465.67 92.92 466.00 91.93Q466.33 90.94 467.43 90.94L467.43 90.94Q473.15 90.94 479.97 91.16Q486.79 91.38 495.15 91.38L495.15 91.38L558.95 91.38L558.95 86.76Q558.95 85.66 560.05 85.22Q561.15 84.78 562.25 84.78L562.25 84.78Q563.35 84.78 564.34 85.22Q565.33 85.66 565.33 86.76L565.33 86.76Q565.33 94.90 565.77 104.03Q566.21 113.16 567.53 120.20L567.53 120.20Q567.97 121.08 566.87 121.52Q565.77 121.96 564.45 121.96L564.45 121.96Q563.13 121.96 561.92 121.52Q560.71 121.08 560.49 120.20L560.49 120.20Q559.39 115.58 557.63 110.74Q555.87 105.90 552.13 104.14L552.13 104.14Q546.41 101.94 537.72 100.84Q529.03 99.74 514.73 99.52L514.73 99.52Q510.33 99.74 508.90 102.05Q507.47 104.36 507.47 109.64L507.47 109.64ZM653.55 166.18L653.55 212.38Q653.55 220.74 654.32 224.92Q655.09 229.10 656.19 230.42Q657.29 231.74 658.17 231.74L658.17 231.74L670.93 231.74Q672.03 231.74 672.58 233.06Q673.13 234.38 673.13 235.92L673.13 235.92Q673.13 239 670.93 239L670.93 239L661.47 239Q659.27 239 656.85 238.89Q654.43 238.78 652.01 238.78L652.01 238.78L643.21 238.78Q633.97 238.78 628.47 238.89Q622.97 239 619.45 239.22Q615.93 239.44 612.41 239.44L612.41 239.44Q611.53 239.44 611.09 238.34Q610.65 237.24 610.65 235.92L610.65 235.92Q610.65 234.38 611.09 233.17Q611.53 231.96 612.41 231.96L612.41 231.96L621.87 231.96Q627.59 231.96 629.24 229.76Q630.89 227.56 630.89 221.84L630.89 221.84L630.89 117.56Q630.89 108.98 630.12 104.91Q629.35 100.84 628.36 99.52Q627.37 98.20 626.27 98.20L626.27 98.20L613.51 98.20Q611.75 98.20 611.75 94.02L611.75 94.02Q611.75 92.92 612.08 91.93Q612.41 90.94 613.51 90.94L613.51 90.94Q622.53 90.94 629.46 91.16Q636.39 91.38 641.23 91.38L641.23 91.38L666.53 91.38Q687.21 91.38 699.97 96.88Q712.73 102.38 718.78 111.29Q724.83 120.20 724.83 130.10L724.83 130.10Q724.83 140.22 719.00 149.68Q713.17 159.14 702.50 165.30Q691.83 171.46 677.09 171.46L677.09 171.46Q671.81 171.46 665.87 170.25Q659.93 169.04 653.55 166.18L653.55 166.18ZM701.07 131.86L701.07 131.86Q701.07 123.94 696.89 116.68Q692.71 109.42 683.91 104.80Q675.11 100.18 661.47 100.18L661.47 100.18Q657.29 100.18 655.42 102.27Q653.55 104.36 653.55 110.30L653.55 110.30L653.55 159.14Q659.49 160.46 665.21 160.46L665.21 160.46Q677.09 160.46 685.01 156.39Q692.93 152.32 697.00 145.83Q701.07 139.34 701.07 131.86ZM933.39 129L933.39 129Q933.39 136.92 929.21 143.63Q925.03 150.34 917.88 155.07Q910.73 159.80 901.71 161.56L901.71 161.56L901.71 162.44Q921.95 165.96 933.17 176.74Q944.39 187.52 944.39 200.50L944.39 200.50Q944.39 210.62 937.02 219.42Q929.65 228.22 915.68 233.61Q901.71 239 881.69 239L881.69 239L860.35 239Q846.27 239 837.25 239.22Q828.23 239.44 822.95 239.44L822.95 239.44Q822.07 239.44 821.63 238.34Q821.19 237.24 821.19 235.92L821.19 235.92Q821.19 234.38 821.63 233.17Q822.07 231.96 822.95 231.96L822.95 231.96L832.41 231.96Q838.13 231.96 839.78 229.76Q841.43 227.56 841.43 221.84L841.43 221.84L841.43 117.78Q841.43 109.20 840.66 105.13Q839.89 101.06 838.90 99.74Q837.91 98.42 836.81 98.42L836.81 98.42L822.95 98.42Q821.19 98.42 821.19 94.24L821.19 94.24Q821.19 93.14 821.52 92.04Q821.85 90.94 822.95 90.94L822.95 90.94Q829.99 90.94 837.58 91.16Q845.17 91.38 851.77 91.38L851.77 91.38L877.07 91.38Q897.31 91.38 909.63 96.77Q921.95 102.16 927.67 110.74Q933.39 119.32 933.39 129ZM864.09 110.30L864.09 157.38Q867.17 157.82 870.03 158.04Q872.89 158.26 875.75 158.26L875.75 158.26Q887.19 158.26 894.67 154.41Q902.15 150.56 905.89 144.18Q909.63 137.80 909.63 130.76L909.63 130.76Q909.63 123.06 905.78 116.13Q901.93 109.20 893.35 104.69Q884.77 100.18 870.47 100.18L870.47 100.18Q867.17 100.18 865.63 102.49Q864.09 104.80 864.09 110.30L864.09 110.30ZM864.09 166.18L864.09 210.84Q864.09 222.94 865.52 226.57Q866.95 230.20 868.93 230.20L868.93 230.20L880.15 230.20Q899.07 230.20 908.42 221.73Q917.77 213.26 917.77 200.50L917.77 200.50Q917.77 193.68 915.57 187.74Q913.37 181.80 907.65 177.18Q901.93 172.56 891.37 169.70Q880.81 166.84 864.09 166.18L864.09 166.18ZM1021.17 109.64L1021.17 161.56Q1030.85 161.34 1039.87 160.79Q1048.89 160.24 1055.05 159.58Q1061.21 158.92 1061.87 158.48L1061.87 158.48L1064.07 145.50Q1064.29 143.96 1067.59 143.96L1067.59 143.96Q1068.91 143.96 1070.01 144.40Q1071.11 144.84 1070.89 145.94L1070.89 145.94Q1070.23 151 1070.01 155.18Q1069.79 159.36 1069.79 164.42L1069.79 164.42Q1069.79 169.26 1070.01 174.43Q1070.23 179.60 1070.89 184.66L1070.89 184.66Q1071.11 185.54 1069.79 185.98Q1068.47 186.42 1066.93 186.42L1066.93 186.42Q1064.07 186.42 1064.07 185.10L1064.07 185.10L1061.65 171.90Q1060.99 171.46 1055.05 170.80Q1049.11 170.14 1040.09 169.48Q1031.07 168.82 1021.17 168.60L1021.17 168.60L1021.17 210.84Q1021.17 219.20 1021.94 223.38Q1022.71 227.56 1023.81 228.88Q1024.91 230.20 1025.79 230.20L1025.79 230.20L1037.01 230.20Q1051.31 229.98 1064.40 227.56Q1077.49 225.14 1083.65 220.96L1083.65 220.96L1085.19 208.86Q1085.41 207.98 1086.62 207.54Q1087.83 207.10 1089.37 207.10L1089.37 207.10Q1092.67 207.10 1092.45 208.86L1092.45 208.86Q1091.35 217 1090.91 226.24Q1090.47 235.48 1090.47 243.84L1090.47 243.84Q1090.47 245.38 1087.17 245.38L1087.17 245.38Q1085.85 245.38 1084.75 245.05Q1083.65 244.72 1083.65 243.84L1083.65 243.84L1083.65 239L1029.31 239Q1015.23 239 1006.54 239.11Q997.85 239.22 992.90 239.22Q987.95 239.22 985.20 239.33Q982.45 239.44 980.03 239.44L980.03 239.44Q979.15 239.44 978.71 238.34Q978.27 237.24 978.27 235.92L978.27 235.92Q978.27 234.38 978.71 233.17Q979.15 231.96 980.03 231.96L980.03 231.96L989.49 231.96Q995.21 231.96 996.86 229.76Q998.51 227.56 998.51 221.84L998.51 221.84L998.51 117.56Q998.51 108.98 997.74 104.91Q996.97 100.84 995.98 99.52Q994.99 98.20 993.89 98.20L993.89 98.20L981.13 98.20Q979.37 98.20 979.37 94.02L979.37 94.02Q979.37 92.92 979.70 91.93Q980.03 90.94 981.13 90.94L981.13 90.94Q986.85 90.94 993.67 91.16Q1000.49 91.38 1008.85 91.38L1008.85 91.38L1072.65 91.38L1072.65 86.76Q1072.65 85.66 1073.75 85.22Q1074.85 84.78 1075.95 84.78L1075.95 84.78Q1077.05 84.78 1078.04 85.22Q1079.03 85.66 1079.03 86.76L1079.03 86.76Q1079.03 94.90 1079.47 104.03Q1079.91 113.16 1081.23 120.20L1081.23 120.20Q1081.67 121.08 1080.57 121.52Q1079.47 121.96 1078.15 121.96L1078.15 121.96Q1076.83 121.96 1075.62 121.52Q1074.41 121.08 1074.19 120.20L1074.19 120.20Q1073.09 115.58 1071.33 110.74Q1069.57 105.90 1065.83 104.14L1065.83 104.14Q1060.11 101.94 1051.42 100.84Q1042.73 99.74 1028.43 99.52L1028.43 99.52Q1024.03 99.74 1022.60 102.05Q1021.17 104.36 1021.17 109.64L1021.17 109.64ZM1200.25 166.62L1200.25 166.62Q1197.17 167.06 1194.75 167.28L1194.75 167.28Q1203.77 170.58 1209.93 177.84Q1216.09 185.10 1220.49 193.79Q1224.89 202.48 1228.85 210.62Q1232.81 218.76 1237.54 224.04Q1242.27 229.32 1249.31 229.32L1249.31 229.32Q1252.83 229.32 1255.14 227.56Q1257.45 225.80 1259.65 223.60L1259.65 223.60Q1260.97 222.50 1262.62 223.93Q1264.27 225.36 1263.39 226.46L1263.39 226.46Q1259.87 231.30 1253.82 236.58Q1247.77 241.86 1239.41 241.86L1239.41 241.86Q1231.05 241.86 1224.78 237.35Q1218.51 232.84 1213.45 225.58Q1208.39 218.32 1204.10 209.74Q1199.81 201.16 1195.52 192.91Q1191.23 184.66 1186.39 178.17Q1181.55 171.68 1175.17 168.60L1175.17 168.60Q1175.17 168.38 1174.95 168.38L1174.95 168.38Q1172.97 168.16 1170.99 167.83Q1169.01 167.50 1167.25 167.28L1167.25 167.28L1167.25 212.38Q1167.25 220.74 1168.02 224.92Q1168.79 229.10 1169.89 230.42Q1170.99 231.74 1171.87 231.74L1171.87 231.74L1184.63 231.74Q1186.39 231.74 1186.39 235.92L1186.39 235.92Q1186.39 236.80 1186.06 237.90Q1185.73 239 1184.63 239L1184.63 239Q1177.81 239 1170.66 238.89Q1163.51 238.78 1156.91 238.78L1156.91 238.78Q1147.67 238.78 1142.17 238.89Q1136.67 239 1133.15 239.22Q1129.63 239.44 1126.11 239.44L1126.11 239.44Q1125.23 239.44 1124.79 238.34Q1124.35 237.24 1124.35 235.92L1124.35 235.92Q1124.35 234.38 1124.79 233.17Q1125.23 231.96 1126.11 231.96L1126.11 231.96L1135.57 231.96Q1141.29 231.96 1142.94 229.76Q1144.59 227.56 1144.59 221.84L1144.59 221.84L1144.59 117.56Q1144.59 108.98 1143.82 104.91Q1143.05 100.84 1142.06 99.52Q1141.07 98.20 1139.97 98.20L1139.97 98.20L1127.21 98.20Q1125.45 98.20 1125.45 94.02L1125.45 94.02Q1125.45 92.92 1125.78 91.93Q1126.11 90.94 1127.21 90.94L1127.21 90.94Q1136.23 90.94 1143.16 91.16Q1150.09 91.38 1154.93 91.38L1154.93 91.38L1180.23 91.38Q1200.91 91.38 1213.67 96.77Q1226.43 102.16 1232.48 110.96Q1238.53 119.76 1238.53 129.66L1238.53 129.66Q1238.53 139.34 1233.36 146.82Q1228.19 154.30 1219.50 159.25Q1210.81 164.20 1200.25 166.62ZM1214.77 131.86L1214.77 131.86Q1214.77 124.16 1210.59 116.90Q1206.41 109.64 1197.83 104.91Q1189.25 100.18 1175.83 100.18L1175.83 100.18Q1170.99 100.18 1169.12 102.49Q1167.25 104.80 1167.25 109.20L1167.25 109.20L1167.25 159.14Q1173.19 160.46 1178.91 160.46L1178.91 160.46Q1190.79 160.46 1198.71 156.39Q1206.63 152.32 1210.70 145.83Q1214.77 139.34 1214.77 131.86ZM1415.63 241.64L1415.63 241.64Q1415.63 241.64 1410.79 235.92Q1405.95 230.20 1397.70 220.30Q1389.45 210.40 1378.89 197.86Q1368.33 185.32 1357 171.68Q1345.67 158.04 1334.67 144.84Q1323.67 131.64 1314.43 120.42L1314.43 120.42L1313.55 120.42Q1313.99 152.10 1314.21 176.08Q1314.43 200.06 1314.87 215.68L1314.87 215.68Q1315.09 221.40 1316.19 226.57Q1317.29 231.74 1319.49 231.74L1319.49 231.74L1331.59 231.74Q1332.69 231.74 1333.13 232.95Q1333.57 234.16 1333.57 235.70L1333.57 235.70Q1333.57 239 1331.59 239L1331.59 239Q1323.45 239 1318.17 238.89Q1312.89 238.78 1308.27 238.78L1308.27 238.78Q1300.79 238.78 1293.75 239.11Q1286.71 239.44 1282.09 239.44L1282.09 239.44Q1281.21 239.44 1280.88 238.23Q1280.55 237.02 1280.55 235.70L1280.55 235.70Q1280.55 234.38 1280.88 233.17Q1281.21 231.96 1282.09 231.96L1282.09 231.96L1289.35 231.96Q1294.19 231.96 1296.50 230.75Q1298.81 229.54 1299.03 226.02L1299.03 226.02Q1300.13 214.80 1300.90 199.84Q1301.67 184.88 1302.22 168.38Q1302.77 151.88 1303.10 136.15Q1303.43 120.42 1303.43 107.66L1303.43 107.66L1301.89 105.90Q1299.25 102.60 1296.94 100.95Q1294.63 99.30 1291.22 98.64Q1287.81 97.98 1281.43 97.98L1281.43 97.98Q1280.77 97.98 1280.44 96.99Q1280.11 96 1280.11 94.90L1280.11 94.90Q1280.11 93.58 1280.44 92.26Q1280.77 90.94 1281.43 90.94L1281.43 90.94Q1284.29 90.94 1289.46 91.05Q1294.63 91.16 1300.68 91.16Q1306.73 91.16 1312.23 91.27Q1317.73 91.38 1321.25 91.38L1321.25 91.38Q1321.25 91.38 1325.54 96.77Q1329.83 102.16 1336.98 111.18Q1344.13 120.20 1353.04 131.31Q1361.95 142.42 1371.19 154.08Q1380.43 165.74 1388.79 176.41Q1397.15 187.08 1403.42 195Q1409.69 202.92 1412.33 206.66L1412.33 206.66L1413.21 206.66Q1412.99 186.20 1412.77 167.50Q1412.55 148.80 1412.11 133.29Q1411.67 117.78 1410.79 107L1410.79 107Q1410.13 98.20 1405.95 98.20L1405.95 98.20L1395.39 98.20Q1394.51 98.20 1393.96 97.21Q1393.41 96.22 1393.41 95.12L1393.41 95.12Q1393.41 93.80 1393.96 92.37Q1394.51 90.94 1395.39 90.94L1395.39 90.94Q1400.23 90.94 1407.05 91.16Q1413.87 91.38 1419.37 91.38L1419.37 91.38Q1425.53 91.38 1432.57 91.05Q1439.61 90.72 1445.33 90.72L1445.33 90.72Q1446.21 90.72 1446.76 92.26Q1447.31 93.80 1447.31 95.12L1447.31 95.12Q1447.31 97.98 1445.33 97.98L1445.33 97.98L1434.99 97.98Q1430.37 97.98 1429.16 100.18Q1427.95 102.38 1427.29 107.88L1427.29 107.88Q1426.63 114.04 1425.97 127.57Q1425.31 141.10 1424.87 159.47Q1424.43 177.84 1424.10 198.96Q1423.77 220.08 1423.77 241.64L1423.77 241.64Q1423.33 243.18 1420.25 243.18L1420.25 243.18Q1417.17 243.18 1415.63 241.64ZM1574.91 225.14L1574.91 225.14Q1570.73 211.72 1566.11 198.30Q1561.49 184.88 1556.87 171.02L1556.87 171.02L1517.05 171.02Q1509.79 194.12 1503.19 217.88L1503.19 217.88Q1502.31 221.40 1501.87 224.04Q1501.43 226.68 1501.43 228.44L1501.43 228.44Q1501.43 231.74 1502.75 231.74L1502.75 231.74L1518.59 231.74Q1519.91 231.74 1520.46 232.95Q1521.01 234.16 1521.01 235.26L1521.01 235.26Q1521.01 236.14 1520.46 237.57Q1519.91 239 1518.15 239L1518.15 239Q1514.63 239 1509.35 238.89Q1504.07 238.78 1498.79 238.78Q1493.51 238.78 1489.77 238.78L1489.77 238.78Q1483.39 238.78 1477.45 239.11Q1471.51 239.44 1465.35 239.44L1465.35 239.44Q1463.37 239.44 1463.37 235.70L1463.37 235.70Q1463.37 231.96 1465.35 231.96L1465.35 231.96L1476.35 231.96Q1481.19 231.96 1483.61 227.12L1483.61 227.12Q1489.99 213.48 1495.05 200.28Q1500.11 187.08 1505.17 172.78Q1510.23 158.48 1516.06 142.42Q1521.89 126.36 1529.59 107.22L1529.59 107.22Q1530.25 105.46 1530.91 103.81Q1531.57 102.16 1531.57 100.84L1531.57 100.84Q1531.57 98.86 1530.69 97.54Q1529.81 96.22 1529.81 95.34L1529.81 95.34Q1529.81 93.58 1532.01 93.58L1532.01 93.58Q1536.63 93.58 1539.05 92.04Q1541.47 90.50 1542.57 88.63Q1543.67 86.76 1544.55 85.22Q1545.43 83.68 1546.97 83.68L1546.97 83.68Q1547.85 83.68 1548.51 85.77Q1549.17 87.86 1550.05 90.28L1550.05 90.28L1594.27 209.74Q1599.11 222.50 1601.75 227.12Q1604.39 231.74 1605.93 231.74L1605.93 231.74L1613.85 231.74Q1616.05 231.74 1616.05 235.04L1616.05 235.04Q1616.05 236.58 1615.72 237.79Q1615.39 239 1614.29 239L1614.29 239Q1605.71 239 1599 238.89Q1592.29 238.78 1586.35 238.78L1586.35 238.78Q1580.63 238.78 1572.82 239.11Q1565.01 239.44 1558.41 239.44L1558.41 239.44Q1556.43 239.44 1556.43 235.48L1556.43 235.48Q1556.43 231.96 1558.41 231.96L1558.41 231.96L1570.95 231.96Q1577.11 231.96 1574.91 225.14ZM1537.95 113.82L1537.07 113.82Q1532.45 125.92 1528.27 137.91Q1524.09 149.90 1519.91 162.22L1519.91 162.22L1553.79 162.22Q1550.05 150.56 1545.98 138.57Q1541.91 126.58 1537.95 113.82L1537.95 113.82ZM1668.63 91.38L1698.55 91.38Q1726.05 91.38 1746.18 100.73Q1766.31 110.08 1777.20 126.69Q1788.09 143.30 1788.09 165.30L1788.09 165.30Q1788.09 182.46 1781.60 196.10Q1775.11 209.74 1763.45 219.31Q1751.79 228.88 1736.28 233.94Q1720.77 239 1702.73 239L1702.73 239L1676.99 239Q1662.91 239 1653.89 239.22Q1644.87 239.44 1639.59 239.44L1639.59 239.44Q1638.71 239.44 1638.27 238.34Q1637.83 237.24 1637.83 235.92L1637.83 235.92Q1637.83 234.38 1638.27 233.17Q1638.71 231.96 1639.59 231.96L1639.59 231.96L1649.05 231.96Q1654.77 231.96 1656.42 229.76Q1658.07 227.56 1658.07 221.84L1658.07 221.84L1658.07 117.12Q1658.07 108.54 1657.30 104.58Q1656.53 100.62 1655.54 99.52Q1654.55 98.42 1653.45 98.42L1653.45 98.42L1639.59 98.42Q1637.61 98.42 1637.61 95.12L1637.61 95.12Q1637.61 93.80 1638.16 92.37Q1638.71 90.94 1639.59 90.94L1639.59 90.94Q1642.23 90.94 1647.29 91.05Q1652.35 91.16 1658.18 91.27Q1664.01 91.38 1668.63 91.38L1668.63 91.38ZM1685.35 230.20L1703.39 229.98Q1721.43 229.76 1734.85 222.50Q1748.27 215.24 1755.64 202.04Q1763.01 188.84 1763.01 170.80L1763.01 170.80Q1763.01 151 1755.53 135.71Q1748.05 120.42 1731.88 111.07Q1715.71 101.72 1689.09 100.18L1689.09 100.18Q1685.13 99.96 1682.93 102.05Q1680.73 104.14 1680.73 109.20L1680.73 109.20L1680.73 210.84Q1680.73 219.20 1681.50 223.38Q1682.27 227.56 1683.37 228.88Q1684.47 230.20 1685.35 230.20L1685.35 230.20Z" fill="#ffffff" stroke="#ffffff" stroke-width="9" stroke-linejoin="round"/>
  <path d="M795.27 355.54L795.27 355.54Q795.27 359.89 792.62 363.16Q789.98 366.44 785.67 368.26Q781.37 370.08 776.39 370.08L776.39 370.08Q772.99 370.08 770.03 369.29Q767.07 368.50 765.25 367.71L765.25 367.71L765.88 369.29Q766.12 369.84 765.49 370.24Q764.86 370.63 764.14 370.63L764.14 370.63Q763.51 370.63 763.28 370.24L763.28 370.24Q762.64 368.50 761.97 365.93Q761.30 363.36 760.83 360.56Q760.35 357.75 760.19 355.38L760.19 355.38Q760.19 354.99 760.59 354.79Q760.98 354.59 761.54 354.59L761.54 354.59Q761.93 354.59 762.33 354.71Q762.72 354.83 762.80 355.15L762.80 355.15Q763.28 356.65 764.34 358.66Q765.41 360.68 767.15 362.61Q768.88 364.55 771.37 365.81Q773.86 367.07 777.02 367.07L777.02 367.07Q781.92 367.07 784.45 364.43Q786.98 361.78 786.98 358.62L786.98 358.62Q786.98 354.83 785.24 352.22Q783.50 349.62 780.70 347.72Q777.89 345.82 774.81 344.09Q771.73 342.35 768.92 340.37Q766.12 338.40 764.38 335.59Q762.64 332.79 762.64 328.76L762.64 328.76Q762.64 324.97 764.97 321.85Q767.30 318.73 771.41 316.87Q775.52 315.01 780.81 315.01L780.81 315.01Q784.05 315.01 786.23 315.61Q788.40 316.20 788.40 316.20L788.40 316.20Q788.32 315.96 788.20 315.25Q788.08 314.54 788.08 314.38L788.08 314.38Q788.00 313.99 788.40 313.79Q788.79 313.59 789.27 313.59L789.27 313.59Q790.21 313.59 790.45 314.22L790.45 314.22Q791.40 317.54 791.95 320.94Q792.51 324.34 792.58 326.79L792.58 326.79Q792.51 327.02 791.99 327.14Q791.48 327.26 790.93 327.26L790.93 327.26Q790.21 327.26 789.98 327.02L789.98 327.02Q789.42 325.05 788.40 322.99Q787.37 320.94 785.32 319.48Q783.26 318.02 779.63 318.02L779.63 318.02Q775.99 318.02 774.02 319.32Q772.04 320.62 771.29 322.56Q770.54 324.49 770.54 326.39L770.54 326.39Q770.54 329.55 772.32 331.76Q774.10 333.97 776.94 335.71Q779.79 337.45 782.91 339.19Q786.03 340.93 788.87 343.06Q791.72 345.19 793.49 348.19Q795.27 351.20 795.27 355.54ZM824.66 333.50L824.66 333.50Q828.37 333.50 831.77 334.88Q835.17 336.26 837.85 338.75Q840.54 341.24 842.12 344.56Q843.70 347.88 843.70 351.67L843.70 351.67Q843.70 356.96 841.09 361.15Q838.48 365.34 834.18 367.71Q829.87 370.08 824.66 370.08L824.66 370.08Q819.52 370.08 815.22 367.55Q810.91 365.02 808.31 360.79Q805.70 356.57 805.70 351.35L805.70 351.35Q805.70 347.56 807.28 344.32Q808.86 341.08 811.54 338.63Q814.23 336.19 817.63 334.84Q821.02 333.50 824.66 333.50ZM824.34 336.34L824.34 336.34Q821.42 336.34 819.37 337.73Q817.31 339.11 816.05 341.40Q814.78 343.69 814.19 346.38Q813.60 349.06 813.60 351.67L813.60 351.67Q813.60 355.38 814.70 358.98Q815.81 362.57 818.34 364.90Q820.87 367.23 825.05 367.23L825.05 367.23Q829.00 367.23 831.33 364.94Q833.66 362.65 834.73 359.14Q835.80 355.62 835.80 352.14L835.80 352.14Q835.80 348.35 834.73 344.72Q833.66 341.08 831.14 338.71Q828.61 336.34 824.34 336.34ZM858.87 365.50L858.87 337.53L853.34 337.53Q852.47 337.53 852.47 336.19L852.47 336.19Q852.47 335.71 852.66 335.32Q852.86 334.92 853.18 334.92L853.18 334.92Q854.05 334.92 855.23 334.84Q856.42 334.76 857.44 334.41Q858.47 334.05 858.71 333.26L858.71 333.26Q859.42 331.05 860.09 328.21Q860.76 325.36 861.83 322.52Q862.89 319.68 864.79 317.27Q866.69 314.86 869.73 313.36Q872.77 311.85 877.35 311.85L877.35 311.85Q880.59 311.85 882.80 313.43Q885.01 315.01 885.01 316.91L885.01 316.91Q885.01 318.02 884.19 319.12Q883.36 320.23 881.06 320.94L881.06 320.94Q879.80 318.96 878.10 317.07Q876.40 315.17 873.72 315.17L873.72 315.17Q870.72 315.17 869.02 316.95Q867.32 318.73 866.61 321.41Q865.90 324.10 865.74 327.02Q865.58 329.94 865.58 332.24L865.58 332.24L865.58 334.53L874.51 334.53Q874.90 334.53 875.14 335.08Q875.38 335.63 875.38 336.19L875.38 336.19Q875.38 336.58 875.22 337.06Q875.06 337.53 874.67 337.53L874.67 337.53L865.58 337.53L865.58 359.73Q865.58 362.73 865.82 364.23Q866.05 365.73 866.45 366.21Q866.84 366.68 867.24 366.68L867.24 366.68L871.11 366.68Q871.43 366.68 871.58 367.15Q871.74 367.63 871.74 368.02L871.74 368.02Q871.74 368.34 871.62 368.69Q871.51 369.05 871.27 369.05L871.27 369.05Q869.14 369.05 867.83 369.01Q866.53 368.97 865.42 368.97Q864.32 368.97 862.66 368.97L862.66 368.97Q859.26 368.97 857.52 369.09Q855.78 369.21 853.49 369.21L853.49 369.21Q853.26 369.21 853.10 368.77Q852.94 368.34 852.94 368.02L852.94 368.02Q852.94 367.63 853.06 367.23Q853.18 366.84 853.34 366.84L853.34 366.84L857.92 366.84Q858.87 366.84 858.87 365.50L858.87 365.50ZM888.65 359.57L888.65 337.53L884.62 337.53Q884.30 337.53 884.07 337.09Q883.83 336.66 883.83 336.34L883.83 336.34Q883.83 336.03 883.99 335.63Q884.15 335.24 884.46 335.16L884.46 335.16Q888.41 334.37 890.54 331.33Q892.68 328.29 894.02 324.42L894.02 324.42Q894.18 324.02 894.49 323.94Q894.81 323.86 895.05 323.86L895.05 323.86Q895.84 323.86 895.84 324.89L895.84 324.89Q895.84 326.63 895.60 328.72Q895.36 330.81 895.36 334.53L895.36 334.53L905.16 334.53Q905.55 334.53 905.75 335.08Q905.95 335.63 905.95 336.19L905.95 336.19Q905.95 336.58 905.83 337.06Q905.71 337.53 905.32 337.53L905.32 337.53L895.36 337.53L895.36 357.83Q895.36 361.62 896.67 363.48Q897.97 365.34 901.21 365.34L901.21 365.34Q902.95 365.34 903.94 364.55Q904.92 363.76 905.52 363.01Q906.11 362.26 906.50 362.26L906.50 362.26Q907.29 362.26 907.29 362.97L907.29 362.97Q907.29 364.15 906.15 365.89Q905.00 367.63 902.87 368.97Q900.74 370.31 897.73 370.31L897.73 370.31Q893.55 370.31 891.10 367.59Q888.65 364.86 888.65 359.57L888.65 359.57ZM967.65 336.50L965.59 336.50Q964.73 336.50 964.33 337.21L964.33 337.21Q963.30 338.87 961.84 342.31Q960.38 345.75 958.72 349.97Q957.06 354.20 955.52 358.35Q953.98 362.49 952.88 365.69Q951.77 368.89 951.37 370.16L951.37 370.16Q951.06 370.87 949.79 370.87L949.79 370.87Q948.61 370.87 948.29 370.08L948.29 370.08Q947.82 368.02 946.52 364.51Q945.21 360.99 943.55 356.77Q941.89 352.54 940.16 348.43L940.16 348.43Q938.42 352.78 936.72 357.28Q935.02 361.78 933.80 365.30Q932.57 368.81 932.18 370.16L932.18 370.16Q931.86 370.87 930.60 370.87L930.60 370.87Q929.41 370.87 929.10 370.08L929.10 370.08Q928.54 367.94 927.08 364.15Q925.62 360.36 923.65 355.86Q921.67 351.35 919.70 347.05Q917.72 342.74 916.22 339.58L916.22 339.58Q915.27 337.61 914.48 337.09Q913.69 336.58 912.03 336.58L912.03 336.58Q911.56 336.58 911.56 335.63L911.56 335.63Q911.56 335.24 911.68 334.84Q911.80 334.45 912.03 334.45L912.03 334.45Q914.24 334.45 915.82 334.53Q917.40 334.61 919.54 334.61L919.54 334.61Q921.04 334.61 922.62 334.53Q924.20 334.45 926.88 334.45L926.88 334.45Q927.20 334.45 927.28 334.76Q927.36 335.08 927.36 335.48L927.36 335.48Q927.36 336.50 926.88 336.50L926.88 336.50L924.28 336.50Q923.41 336.50 923.41 337.21L923.41 337.21Q923.41 337.53 924.04 339.27Q924.67 341.00 925.74 343.69Q926.81 346.38 927.99 349.54Q929.18 352.70 930.36 355.86Q931.55 359.02 932.41 361.62L932.41 361.62Q934.07 356.01 935.65 351.63Q937.23 347.25 938.26 344.17L938.26 344.17Q937.23 341.72 936.21 339.58L936.21 339.58Q935.26 337.61 934.47 337.09Q933.68 336.58 932.02 336.58L932.02 336.58Q931.55 336.58 931.55 335.63L931.55 335.63Q931.55 335.24 931.66 334.84Q931.78 334.45 932.02 334.45L932.02 334.45Q934.23 334.45 935.81 334.53Q937.39 334.61 939.52 334.61L939.52 334.61Q941.03 334.61 943.20 334.53Q945.37 334.45 948.06 334.45L948.06 334.45Q948.37 334.45 948.45 334.76Q948.53 335.08 948.53 335.48L948.53 335.48Q948.53 336.50 948.06 336.50L948.06 336.50L944.26 336.50Q943.40 336.50 943.40 337.21L943.40 337.21Q943.40 337.53 944.26 340.14Q945.13 342.74 946.44 346.50Q947.74 350.25 949.12 354.28Q950.51 358.31 951.61 361.62L951.61 361.62Q954.38 352.38 956.67 346.42Q958.96 340.45 958.96 338.16L958.96 338.16Q958.96 337.21 958.68 336.90Q958.41 336.58 958.01 336.58L958.01 336.58L954.77 336.58Q954.22 336.58 954.22 335.71L954.22 335.71Q954.22 335.32 954.34 334.88Q954.46 334.45 954.61 334.45L954.61 334.45Q956.59 334.45 957.73 334.49Q958.88 334.53 959.79 334.57Q960.70 334.61 961.88 334.61L961.88 334.61Q963.30 334.61 964.49 334.53Q965.67 334.45 967.65 334.45L967.65 334.45Q967.96 334.45 968.08 334.76Q968.20 335.08 968.20 335.48L968.20 335.48Q968.20 336.50 967.65 336.50L967.65 336.50ZM1001.30 343.45L1001.30 343.45Q1001.30 345.82 1001.11 348.79Q1000.91 351.75 1000.71 354.55Q1000.51 357.36 1000.51 359.33L1000.51 359.33Q1000.51 362.41 1001.46 363.52Q1002.41 364.63 1003.99 364.63L1003.99 364.63Q1005.81 364.63 1006.40 363.80Q1006.99 362.97 1007.54 362.97L1007.54 362.97Q1008.33 362.97 1008.33 363.76L1008.33 363.76Q1008.33 365.02 1007.27 366.48Q1006.20 367.94 1004.54 368.93Q1002.88 369.92 1000.99 369.92L1000.99 369.92Q997.83 369.92 996.40 367.39Q994.98 364.86 995.06 361.15L995.06 361.15L994.82 361.15Q993.48 364.94 990.08 367.51Q986.69 370.08 982.34 370.08L982.34 370.08Q979.18 370.08 977.21 368.58Q975.23 367.07 975.23 364.15L975.23 364.15Q975.23 359.49 980.49 355.62Q985.74 351.75 994.67 349.06L994.67 349.06Q994.75 348.04 994.79 347.21Q994.82 346.38 994.82 345.90L994.82 345.90Q994.82 341.95 993.32 339.03Q991.82 336.11 988.11 336.11L988.11 336.11Q985.27 336.11 983.17 337.85Q981.08 339.58 981.08 343.30L981.08 343.30Q981.08 343.69 981.08 344.13Q981.08 344.56 981.16 345.03L981.16 345.03Q980.84 345.43 980.25 345.63Q979.66 345.82 979.02 345.82L979.02 345.82Q977.68 345.82 976.38 344.96Q975.07 344.09 975.07 342.11L975.07 342.11Q975.07 339.58 977.29 337.65Q979.50 335.71 982.74 334.61Q985.98 333.50 989.06 333.50L989.06 333.50Q994.67 333.50 997.98 335.75Q1001.30 338.00 1001.30 343.45ZM986.06 365.73L986.06 365.73Q989.06 365.73 991.70 362.02Q994.35 358.31 994.67 351.35L994.67 351.35Q989.93 353.09 987.32 354.83Q984.71 356.57 983.65 358.35Q982.58 360.12 982.58 362.02L982.58 362.02Q982.58 363.68 983.41 364.70Q984.24 365.73 986.06 365.73ZM1028.00 339.35L1028.16 339.35Q1029.11 338.32 1030.85 336.98Q1032.59 335.63 1034.80 334.57Q1037.01 333.50 1039.22 333.50L1039.22 333.50Q1041.28 333.50 1042.26 334.49Q1043.25 335.48 1043.25 336.82L1043.25 336.82Q1043.25 338.08 1042.34 339.43Q1041.43 340.77 1039.70 341.56L1039.70 341.56Q1038.35 340.37 1036.89 339.66Q1035.43 338.95 1034.01 338.95L1034.01 338.95Q1032.19 338.95 1030.69 339.86Q1029.19 340.77 1028.24 342.03L1028.24 342.03L1028.24 359.73Q1028.24 362.73 1028.48 364.23Q1028.72 365.73 1029.11 366.21Q1029.51 366.68 1029.90 366.68L1029.90 366.68L1033.77 366.68Q1034.09 366.68 1034.25 367.15Q1034.40 367.63 1034.40 368.02L1034.40 368.02Q1034.40 368.34 1034.29 368.69Q1034.17 369.05 1033.93 369.05L1033.93 369.05Q1031.80 369.05 1030.49 369.01Q1029.19 368.97 1028.08 368.97Q1026.98 368.97 1025.32 368.97L1025.32 368.97Q1021.92 368.97 1020.18 369.09Q1018.45 369.21 1016.15 369.21L1016.15 369.21Q1015.92 369.21 1015.76 368.77Q1015.60 368.34 1015.60 368.02L1015.60 368.02Q1015.60 367.63 1015.72 367.23Q1015.84 366.84 1016.00 366.84L1016.00 366.84L1020.58 366.84Q1021.53 366.84 1021.53 365.50L1021.53 365.50L1021.53 346.93Q1021.53 343.53 1021.21 341.91Q1020.89 340.29 1020.38 339.78Q1019.87 339.27 1019.31 339.27L1019.31 339.27L1017.73 339.27Q1017.50 339.27 1017.30 338.83Q1017.10 338.40 1017.10 338.00L1017.10 338.00Q1017.10 337.77 1017.18 337.33Q1017.26 336.90 1017.58 336.90L1017.58 336.90Q1019.39 336.90 1020.97 336.07Q1022.55 335.24 1023.78 334.09Q1025.00 332.95 1025.87 332.12Q1026.74 331.29 1027.06 331.29L1027.06 331.29Q1028.16 331.29 1028.16 332.24L1028.16 332.24Q1028.16 334.45 1028.08 335.91Q1028.00 337.37 1028.00 339.35L1028.00 339.35ZM1078.25 349.30L1078.25 349.30Q1074.14 349.62 1068.37 349.54Q1062.61 349.46 1055.02 349.93L1055.02 349.93Q1055.02 353.65 1056.37 356.21Q1057.71 358.78 1059.84 360.36Q1061.97 361.94 1064.46 362.65Q1066.95 363.36 1069.24 363.36L1069.24 363.36Q1072.48 363.36 1074.50 362.73Q1076.51 362.10 1077.66 361.31Q1078.80 360.52 1079.43 359.89Q1080.07 359.25 1080.62 359.25L1080.62 359.25Q1081.49 359.25 1081.49 360.20L1081.49 360.20Q1081.49 360.68 1080.74 362.26Q1079.99 363.84 1078.37 365.65Q1076.75 367.47 1073.98 368.77Q1071.22 370.08 1067.19 370.08L1067.19 370.08Q1062.45 370.08 1058.74 367.59Q1055.02 365.10 1052.89 361.15Q1050.76 357.20 1050.76 352.86L1050.76 352.86Q1050.76 348.35 1052.38 344.76Q1054.00 341.16 1056.64 338.67Q1059.29 336.19 1062.45 334.88Q1065.61 333.58 1068.77 333.58L1068.77 333.58Q1072.17 333.58 1074.89 335.24Q1077.62 336.90 1079.28 339.86Q1080.93 342.82 1080.93 346.93L1080.93 346.93Q1080.93 348.19 1080.38 348.67Q1079.83 349.14 1078.25 349.30ZM1066.64 337.85L1066.64 337.85Q1064.27 337.85 1061.86 338.91Q1059.45 339.98 1057.67 342.11Q1055.89 344.24 1055.26 347.48L1055.26 347.48Q1058.02 347.17 1061.18 346.93Q1064.34 346.69 1067.19 346.46Q1070.03 346.22 1071.61 345.98L1071.61 345.98Q1073.03 345.82 1073.63 345.51Q1074.22 345.19 1074.22 344.48L1074.22 344.48Q1074.22 341.80 1072.05 339.82Q1069.87 337.85 1066.64 337.85Z" fill="#ffffff" stroke="#ffffff" stroke-width="1" stroke-linejoin="round"/>
</svg>
