<svg xmlns="http://www.w3.org/2000/svg" viewBox="0 0 1845 420">
  <path d="M73.63 211.94L73.63 117.56Q73.63 108.98 72.86 104.91Q72.09 100.84 71.10 99.52Q70.11 98.20 69.01 98.20L69.01 98.20L56.25 98.20Q54.49 98.20 54.49 94.02L54.49 94.02Q54.49 92.92 54.82 91.93Q55.15 90.94 56.25 90.94L56.25 90.94Q63.29 90.94 70.33 91.05Q77.37 91.16 83.97 91.16L83.97 91.16Q93.43 91.16 98.82 91.05Q104.21 90.94 107.73 90.72Q111.25 90.50 114.77 90.50L114.77 90.50Q115.87 90.50 116.20 91.60Q116.53 92.70 116.53 94.02L116.53 94.02Q116.53 95.56 116.09 96.77Q115.65 97.98 114.77 97.98L114.77 97.98L105.31 97.98Q99.81 97.98 98.05 100.18Q96.29 102.38 96.29 108.10L96.29 108.10L96.29 209.96Q96.29 225.58 95.19 238.78Q94.09 251.98 90.35 261.22L90.35 261.22Q85.95 271.78 78.14 280.36Q70.33 288.94 59.99 294Q49.65 299.06 37.33 299.06L37.33 299.06Q35.79 299.06 33.04 298.51Q30.29 297.96 27.98 296.20Q25.67 294.44 25.67 291.14L25.67 291.14Q25.67 282.78 35.35 279.04L35.35 279.04Q40.19 281.90 46.35 283.33Q52.51 284.76 56.47 284.76L56.47 284.76Q60.65 284.76 63.07 282.78Q65.49 280.80 67.03 277.94L67.03 277.94Q69.23 273.32 70.55 264.52Q71.87 255.72 72.53 245.60Q73.19 235.48 73.41 226.35Q73.63 217.22 73.63 211.94L73.63 211.94ZM222.35 88.52L222.35 88.52Q238.85 88.52 253.37 94.46Q267.89 100.40 278.89 110.96Q289.89 121.52 296.16 135.38Q302.43 149.24 302.43 165.08L302.43 165.08Q302.43 181.14 296.16 195Q289.89 208.86 278.89 219.42Q267.89 229.98 253.37 235.92Q238.85 241.86 222.35 241.86L222.35 241.86Q205.85 241.86 191.33 235.92Q176.81 229.98 165.81 219.42Q154.81 208.86 148.54 195Q142.27 181.14 142.27 165.08L142.27 165.08Q142.27 149.24 148.54 135.38Q154.81 121.52 165.81 110.96Q176.81 100.40 191.33 94.46Q205.85 88.52 222.35 88.52ZM222.35 98.64L222.35 98.64Q206.73 98.64 194.96 107.55Q183.19 116.46 176.59 131.53Q169.99 146.60 169.99 165.08L169.99 165.08Q169.99 183.56 176.59 198.74Q183.19 213.92 194.96 222.83Q206.73 231.74 222.35 231.74L222.35 231.74Q237.97 231.74 249.74 222.83Q261.51 213.92 268.11 198.74Q274.71 183.56 274.71 165.08L274.71 165.08Q274.71 146.60 268.11 131.53Q261.51 116.46 249.74 107.55Q237.97 98.64 222.35 98.64ZM431.79 201.38L431.79 201.38Q431.79 213.48 424.42 222.61Q417.05 231.74 405.06 236.80Q393.07 241.86 379.21 241.86L379.21 241.86Q369.75 241.86 361.50 239.66Q353.25 237.46 348.19 235.26L348.19 235.26L349.95 239.66Q350.61 241.20 348.85 242.30Q347.09 243.40 345.11 243.40L345.11 243.40Q343.35 243.40 342.69 242.30L342.69 242.30Q340.93 237.46 339.06 230.31Q337.19 223.16 335.87 215.35Q334.55 207.54 334.11 200.94L334.11 200.94Q334.11 199.84 335.21 199.29Q336.31 198.74 337.85 198.74L337.85 198.74Q338.95 198.74 340.05 199.07Q341.15 199.40 341.37 200.28L341.37 200.28Q342.69 204.46 345.66 210.07Q348.63 215.68 353.47 221.07Q358.31 226.46 365.24 229.98Q372.17 233.50 380.97 233.50L380.97 233.50Q394.61 233.50 401.65 226.13Q408.69 218.76 408.69 209.96L408.69 209.96Q408.69 199.40 403.85 192.14Q399.01 184.88 391.20 179.60Q383.39 174.32 374.81 169.48Q366.23 164.64 358.42 159.14Q350.61 153.64 345.77 145.83Q340.93 138.02 340.93 126.80L340.93 126.80Q340.93 116.24 347.42 107.55Q353.91 98.86 365.35 93.69Q376.79 88.52 391.53 88.52L391.53 88.52Q400.55 88.52 406.60 90.17Q412.65 91.82 412.65 91.82L412.65 91.82Q412.43 91.16 412.10 89.18Q411.77 87.20 411.77 86.76L411.77 86.76Q411.55 85.66 412.65 85.11Q413.75 84.56 415.07 84.56L415.07 84.56Q417.71 84.56 418.37 86.32L418.37 86.32Q421.01 95.56 422.55 105.02Q424.09 114.48 424.31 121.30L424.31 121.30Q424.09 121.96 422.66 122.29Q421.23 122.62 419.69 122.62L419.69 122.62Q417.71 122.62 417.05 121.96L417.05 121.96Q415.51 116.46 412.65 110.74Q409.79 105.02 404.07 100.95Q398.35 96.88 388.23 96.88L388.23 96.88Q378.11 96.88 372.61 100.51Q367.11 104.14 365.02 109.53Q362.93 114.92 362.93 120.20L362.93 120.20Q362.93 129 367.88 135.16Q372.83 141.32 380.75 146.16Q388.67 151 397.36 155.84Q406.05 160.68 413.97 166.62Q421.89 172.56 426.84 180.92Q431.79 189.28 431.79 201.38ZM507.47 109.64L507.47 161.56Q517.15 161.34 526.17 160.79Q535.19 160.24 541.35 159.58Q547.51 158.92 548.17 158.48L548.17 158.48L550.37 145.50Q550.59 143.96 553.89 143.96L553.89 143.96Q555.21 143.96 556.31 144.40Q557.41 144.84 557.19 145.94L557.19 145.94Q556.53 151 556.31 155.18Q556.09 159.36 556.09 164.42L556.09 164.42Q556.09 169.26 556.31 174.43Q556.53 179.60 557.19 184.66L557.19 184.66Q557.41 185.54 556.09 185.98Q554.77 186.42 553.23 186.42L553.23 186.42Q550.37 186.42 550.37 185.10L550.37 185.10L547.95 171.90Q547.29 171.46 541.35 170.80Q535.41 170.14 526.39 169.48Q517.37 168.82 507.47 168.60L507.47 168.60L507.47 210.84Q507.47 219.20 508.24 223.38Q509.01 227.56 510.11 228.88Q511.21 230.20 512.09 230.20L512.09 230.20L523.31 230.20Q537.61 229.98 550.70 227.56Q563.79 225.14 569.95 220.96L569.95 220.96L571.49 208.86Q571.71 207.98 572.92 207.54Q574.13 207.10 575.67 207.10L575.67 207.10Q578.97 207.10 578.75 208.86L578.75 208.86Q577.65 217 577.21 226.24Q576.77 235.48 576.77 243.84L576.77 243.84Q576.77 245.38 573.47 245.38L573.47 245.38Q572.15 245.38 571.05 245.05Q569.95 244.72 569.95 243.84L569.95 243.84L569.95 239L515.61 239Q501.53 239 492.84 239.11Q484.15 239.22 479.20 239.22Q474.25 239.22 471.50 239.33Q468.75 239.44 466.33 239.44L466.33 239.44Q465.45 239.44 465.01 238.34Q464.57 237.24 464.57 235.92L464.57 235.92Q464.57 234.38 465.01 233.17Q465.45 231.96 466.33 231.96L466.33 231.96L475.79 231.96Q481.51 231.96 483.16 229.76Q484.81 227.56 484.81 221.84L484.81 221.84L484.81 117.56Q484.81 108.98 484.04 104.91Q483.27 100.84 482.28 99.52Q481.29 98.20 480.19 98.20L480.19 98.20L467.43 98.20Q465.67 98.20 465.67 94.02L465.67 94.02Q465.67 92.92 466.00 91.93Q466.33 90.94 467.43 90.94L467.43 90.94Q473.15 90.94 479.97 91.16Q486.79 91.38 495.15 91.38L495.15 91.38L558.95 91.38L558.95 86.76Q558.95 85.66 560.05 85.22Q561.15 84.78 562.25 84.78L562.25 84.78Q563.35 84.78 564.34 85.22Q565.33 85.66 565.33 86.76L565.33 86.76Q565.33 94.90 565.77 104.03Q566.21 113.16 567.53 120.20L567.53 120.20Q567.97 121.08 566.87 121.52Q565.77 121.96 564.45 121.96L564.45 121.96Q563.13 121.96 561.92 121.52Q560.71 121.08 560.49 120.20L560.49 120.20Q559.39 115.58 557.63 110.74Q555.87 105.90 552.13 104.14L552.13 104.14Q546.41 101.94 537.72 100.84Q529.03 99.74 514.73 99.52L514.73 99.52Q510.33 99.74 508.90 102.05Q507.47 104.36 507.47 109.64L507.47 109.64ZM653.55 166.18L653.55 212.38Q653.55 220.74 654.32 224.92Q655.09 229.10 656.19 230.42Q657.29 231.74 658.17 231.74L658.17 231.74L670.93 231.74Q672.03 231.74 672.58 233.06Q673.13 234.38 673.13 235.92L673.13 235.92Q673.13 239 670.93 239L670.93 239L661.47 239Q659.27 239 656.85 238.89Q654.43 238.78 652.01 238.78L652.01 238.78L643.21 238.78Q633.97 238.78 628.47 238.89Q622.97 239 619.45 239.22Q615.93 239.44 612.41 239.44L612.41 239.44Q611.53 239.44 611.09 238.34Q610.65 237.24 610.65 235.92L610.65 235.92Q610.65 234.38 611.09 233.17Q611.53 231.96 612.41 231.96L612.41 231.96L621.87 231.96Q627.59 231.96 629.24 229.76Q630.89 227.56 630.89 221.84L630.89 221.84L630.89 117.56Q630.89 108.98 630.12 104.91Q629.35 100.84 628.36 99.52Q627.37 98.20 626.27 98.20L626.27 98.20L613.51 98.20Q611.75 98.20 611.75 94.02L611.75 94.02Q611.75 92.92 612.08 91.93Q612.41 90.94 613.51 90.94L613.51 90.94Q622.53 90.94 629.46 91.16Q636.39 91.38 641.23 91.38L641.23 91.38L666.53 91.38Q687.21 91.38 699.97 96.88Q712.73 102.38 718.78 111.29Q724.83 120.20 724.83 130.10L724.83 130.10Q724.83 140.22 719.00 149.68Q713.17 159.14 702.50 165.30Q691.83 171.46 677.09 171.46L677.09 171.46Q671.81 171.46 665.87 170.25Q659.93 169.04 653.55 166.18L653.55 166.18ZM701.07 131.86L701.07 131.86Q701.07 123.94 696.89 116.68Q692.71 109.42 683.91 104.80Q675.11 100.18 661.47 100.18L661.47 100.18Q657.29 100.18 655.42 102.27Q653.55 104.36 653.55 110.30L653.55 110.30L653.55 159.14Q659.49 160.46 665.21 160.46L665.21 160.46Q677.09 160.46 685.01 156.39Q692.93 152.32 697.00 145.83Q701.07 139.34 701.07 131.86ZM933.39 129L933.39 129Q933.39 136.92 929.21 143.63Q925.03 150.34 917.88 155.07Q910.73 159.80 901.71 161.56L901.71 161.56L901.71 162.44Q921.95 165.96 933.17 176.74Q944.39 187.52 944.39 200.50L944.39 200.50Q944.39 210.62 937.02 219.42Q929.65 228.22 915.68 233.61Q901.71 239 881.69 239L881.69 239L860.35 239Q846.27 239 837.25 239.22Q828.23 239.44 822.95 239.44L822.95 239.44Q822.07 239.44 821.63 238.34Q821.19 237.24 821.19 235.92L821.19 235.92Q821.19 234.38 821.63 233.17Q822.07 231.96 822.95 231.96L822.95 231.96L832.41 231.96Q838.13 231.96 839.78 229.76Q841.43 227.56 841.43 221.84L841.43 221.84L841.43 117.78Q841.43 109.20 840.66 105.13Q839.89 101.06 838.90 99.74Q837.91 98.42 836.81 98.42L836.81 98.42L822.95 98.42Q821.19 98.42 821.19 94.24L821.19 94.24Q821.19 93.14 821.52 92.04Q821.85 90.94 822.95 90.94L822.95 90.94Q829.99 90.94 837.58 91.16Q845.17 91.38 851.77 91.38L851.77 91.38L877.07 91.38Q897.31 91.38 909.63 96.77Q921.95 102.16 927.67 110.74Q933.39 119.32 933.39 129ZM864.09 110.30L864.09 157.38Q867.17 157.82 870.03 158.04Q872.89 158.26 875.75 158.26L875.75 158.26Q887.19 158.26 894.67 154.41Q902.15 150.56 905.89 144.18Q909.63 137.80 909.63 130.76L909.63 130.76Q909.63 123.06 905.78 116.13Q901.93 109.20 893.35 104.69Q884.77 100.18 870.47 100.18L870.47 100.18Q867.17 100.18 865.63 102.49Q864.09 104.80 864.09 110.30L864.09 110.30ZM864.09 166.18L864.09 210.84Q864.09 222.94 865.52 226.57Q866.95 230.20 868.93 230.20L868.93 230.20L880.15 230.20Q899.07 230.20 908.42 221.73Q917.77 213.26 917.77 200.50L917.77 200.50Q917.77 193.68 915.57 187.74Q913.37 181.80 907.65 177.18Q901.93 172.56 891.37 169.70Q880.81 166.84 864.09 166.18L864.09 166.18ZM1021.17 109.64L1021.17 161.56Q1030.85 161.34 1039.87 160.79Q1048.89 160.24 1055.05 159.58Q1061.21 158.92 1061.87 158.48L1061.87 158.48L1064.07 145.50Q1064.29 143.96 1067.59 143.96L1067.59 143.96Q1068.91 143.96 1070.01 144.40Q1071.11 144.84 1070.89 145.94L1070.89 145.94Q1070.23 151 1070.01 155.18Q1069.79 159.36 1069.79 164.42L1069.79 164.42Q1069.79 169.26 1070.01 174.43Q1070.23 179.60 1070.89 184.66L1070.89 184.66Q1071.11 185.54 1069.79 185.98Q1068.47 186.42 1066.93 186.42L1066.93 186.42Q1064.07 186.42 1064.07 185.10L1064.07 185.10L1061.65 171.90Q1060.99 171.46 1055.05 170.80Q1049.11 170.14 1040.09 169.48Q1031.07 168.82 1021.17 168.60L1021.17 168.60L1021.17 210.84Q1021.17 219.20 1021.94 223.38Q1022.71 227.56 1023.81 228.88Q1024.91 230.20 1025.79 230.20L1025.79 230.20L1037.01 230.20Q1051.31 229.98 1064.40 227.56Q1077.49 225.14 1083.65 220.96L1083.65 220.96L1085.19 208.86Q1085.41 207.98 1086.62 207.54Q1087.83 207.10 1089.37 207.10L1089.37 207.10Q1092.67 207.10 1092.45 208.86L1092.45 208.86Q1091.35 217 1090.91 226.24Q1090.47 235.48 1090.47 243.84L1090.47 243.84Q1090.47 245.38 1087.17 245.38L1087.17 245.38Q1085.85 245.38 1084.75 245.05Q1083.65 244.72 1083.65 243.84L1083.65 243.84L1083.65 239L1029.31 239Q1015.23 239 1006.54 239.11Q997.85 239.22 992.90 239.22Q987.95 239.22 985.20 239.33Q982.45 239.44 980.03 239.44L980.03 239.44Q979.15 239.44 978.71 238.34Q978.27 237.24 978.27 235.92L978.27 235.92Q978.27 234.38 978.71 233.17Q979.15 231.96 980.03 231.96L980.03 231.96L989.49 231.96Q995.21 231.96 996.86 229.76Q998.51 227.56 998.51 221.84L998.51 221.84L998.51 117.56Q998.51 108.98 997.74 104.91Q996.97 100.84 995.98 99.52Q994.99 98.20 993.89 98.20L993.89 98.20L981.13 98.20Q979.37 98.20 979.37 94.02L979.37 94.02Q979.37 92.92 979.70 91.93Q980.03 90.94 981.13 90.94L981.13 90.94Q986.85 90.94 993.67 91.16Q1000.49 91.38 1008.85 91.38L1008.85 91.38L1072.65 91.38L1072.65 86.76Q1072.65 85.66 1073.75 85.22Q1074.85 84.78 1075.95 84.78L1075.95 84.78Q1077.05 84.78 1078.04 85.22Q1079.03 85.66 1079.03 86.76L1079.03 86.76Q1079.03 94.90 1079.47 104.03Q1079.91 113.16 1081.23 120.20L1081.23 120.20Q1081.67 121.08 1080.57 121.52Q1079.47 121.96 1078.15 121.96L1078.15 121.96Q1076.83 121.96 1075.62 121.52Q1074.41 121.08 1074.19 120.20L1074.19 120.20Q1073.09 115.58 1071.33 110.74Q1069.57 105.90 1065.83 104.14L1065.83 104.14Q1060.11 101.94 1051.42 100.84Q1042.73 99.74 1028.43 99.52L1028.43 99.52Q1024.03 99.74 1022.60 102.05Q1021.17 104.36 1021.17 109.64L1021.17 109.64ZM1200.25 166.62L1200.25 166.62Q1197.17 167.06 1194.75 167.28L1194.75 167.28Q1203.77 170.58 1209.93 177.84Q1216.09 185.10 1220.49 193.79Q1224.89 202.48 1228.85 210.62Q1232.81 218.76 1237.54 224.04Q1242.27 229.32 1249.31 229.32L1249.31 229.32Q1252.83 229.32 1255.14 227.56Q1257.45 225.80 1259.65 223.60L1259.65 223.60Q1260.97 222.50 1262.62 223.93Q1264.27 225.36 1263.39 226.46L1263.39 226.46Q1259.87 231.30 1253.82 236.58Q1247.77 241.86 1239.41 241.86L1239.41 241.86Q1231.05 241.86 1224.78 237.35Q1218.51 232.84 1213.45 225.58Q1208.39 218.32 1204.10 209.74Q1199.81 201.16 1195.52 192.91Q1191.23 184.66 1186.39 178.17Q1181.55 171.68 1175.17 168.60L1175.17 168.60Q1175.17 168.38 1174.95 168.38L1174.95 168.38Q1172.97 168.16 1170.99 167.83Q1169.01 167.50 1167.25 167.28L1167.25 167.28L1167.25 212.38Q1167.25 220.74 1168.02 224.92Q1168.79 229.10 1169.89 230.42Q1170.99 231.74 1171.87 231.74L1171.87 231.74L1184.63 231.74Q1186.39 231.74 1186.39 235.92L1186.39 235.92Q1186.39 236.80 1186.06 237.90Q1185.73 239 1184.63 239L1184.63 239Q1177.81 239 1170.66 238.89Q1163.51 238.78 1156.91 238.78L1156.91 238.78Q1147.67 238.78 1142.17 238.89Q1136.67 239 1133.15 239.22Q1129.63 239.44 1126.11 239.44L1126.11 239.44Q1125.23 239.44 1124.79 238.34Q1124.35 237.24 1124.35 235.92L1124.35 235.92Q1124.35 234.38 1124.79 233.17Q1125.23 231.96 1126.11 231.96L1126.11 231.96L1135.57 231.96Q1141.29 231.96 1142.94 229.76Q1144.59 227.56 1144.59 221.84L1144.59 221.84L1144.59 117.56Q1144.59 108.98 1143.82 104.91Q1143.05 100.84 1142.06 99.52Q1141.07 98.20 1139.97 98.20L1139.97 98.20L1127.21 98.20Q1125.45 98.20 1125.45 94.02L1125.45 94.02Q1125.45 92.92 1125.78 91.93Q1126.11 90.94 1127.21 90.94L1127.21 90.94Q1136.23 90.94 1143.16 91.16Q1150.09 91.38 1154.93 91.38L1154.93 91.38L1180.23 91.38Q1200.91 91.38 1213.67 96.77Q1226.43 102.16 1232.48 110.96Q1238.53 119.76 1238.53 129.66L1238.53 129.66Q1238.53 139.34 1233.36 146.82Q1228.19 154.30 1219.50 159.25Q1210.81 164.20 1200.25 166.62ZM1214.77 131.86L1214.77 131.86Q1214.77 124.16 1210.59 116.90Q1206.41 109.64 1197.83 104.91Q1189.25 100.18 1175.83 100.18L1175.83 100.18Q1170.99 100.18 1169.12 102.49Q1167.25 104.80 1167.25 109.20L1167.25 109.20L1167.25 159.14Q1173.19 160.46 1178.91 160.46L1178.91 160.46Q1190.79 160.46 1198.71 156.39Q1206.63 152.32 1210.70 145.83Q1214.77 139.34 1214.77 131.86ZM1415.63 241.64L1415.63 241.64Q1415.63 241.64 1410.79 235.92Q1405.95 230.20 1397.70 220.30Q1389.45 210.40 1378.89 197.86Q1368.33 185.32 1357 171.68Q1345.67 158.04 1334.67 144.84Q1323.67 131.64 1314.43 120.42L1314.43 120.42L1313.55 120.42Q1313.99 152.10 1314.21 176.08Q1314.43 200.06 1314.87 215.68L1314.87 215.68Q1315.09 221.40 1316.19 226.57Q1317.29 231.74 1319.49 231.74L1319.49 231.74L1331.59 231.74Q1332.69 231.74 1333.13 232.95Q1333.57 234.16 1333.57 235.70L1333.57 235.70Q1333.57 239 1331.59 239L1331.59 239Q1323.45 239 1318.17 238.89Q1312.89 238.78 1308.27 238.78L1308.27 238.78Q1300.79 238.78 1293.75 239.11Q1286.71 239.44 1282.09 239.44L1282.09 239.44Q1281.21 239.44 1280.88 238.23Q1280.55 237.02 1280.55 235.70L1280.55 235.70Q1280.55 234.38 1280.88 233.17Q1281.21 231.96 1282.09 231.96L1282.09 231.96L1289.35 231.96Q1294.19 231.96 1296.50 230.75Q1298.81 229.54 1299.03 226.02L1299.03 226.02Q1300.13 214.80 1300.90 199.84Q1301.67 184.88 1302.22 168.38Q1302.77 151.88 1303.10 136.15Q1303.43 120.42 1303.43 107.66L1303.43 107.66L1301.89 105.90Q1299.25 102.60 1296.94 100.95Q1294.63 99.30 1291.22 98.64Q1287.81 97.98 1281.43 97.98L1281.43 97.98Q1280.77 97.98 1280.44 96.99Q1280.11 96 1280.11 94.90L1280.11 94.90Q1280.11 93.58 1280.44 92.26Q1280.77 90.94 1281.43 90.94L1281.43 90.94Q1284.29 90.94 1289.46 91.05Q1294.63 91.16 1300.68 91.16Q1306.73 91.16 1312.23 91.27Q1317.73 91.38 1321.25 91.38L1321.25 91.38Q1321.25 91.38 1325.54 96.77Q1329.83 102.16 1336.98 111.18Q1344.13 120.20 1353.04 131.31Q1361.95 142.42 1371.19 154.08Q1380.43 165.74 1388.79 176.41Q1397.15 187.08 1403.42 195Q1409.69 202.92 1412.33 206.66L1412.33 206.66L1413.21 206.66Q1412.99 186.20 1412.77 167.50Q1412.55 148.80 1412.11 133.29Q1411.67 117.78 1410.79 107L1410.79 107Q1410.13 98.20 1405.95 98.20L1405.95 98.20L1395.39 98.20Q1394.51 98.20 1393.96 97.21Q1393.41 96.22 1393.41 95.12L1393.41 95.12Q1393.41 93.80 1393.96 92.37Q1394.51 90.94 1395.39 90.94L1395.39 90.94Q1400.23 90.94 1407.05 91.16Q1413.87 91.38 1419.37 91.38L1419.37 91.38Q1425.53 91.38 1432.57 91.05Q1439.61 90.72 1445.33 90.72L1445.33 90.72Q1446.21 90.72 1446.76 92.26Q1447.31 93.80 1447.31 95.12L1447.31 95.12Q1447.31 97.98 1445.33 97.98L1445.33 97.98L1434.99 97.98Q1430.37 97.98 1429.16 100.18Q1427.95 102.38 1427.29 107.88L1427.29 107.88Q1426.63 114.04 1425.97 127.57Q1425.31 141.10 1424.87 159.47Q1424.43 177.84 1424.10 198.96Q1423.77 220.08 1423.77 241.64L1423.77 241.64Q1423.33 243.18 1420.25 243.18L1420.25 243.18Q1417.17 243.18 1415.63 241.64ZM1574.91 225.14L1574.91 225.14Q1570.73 211.72 1566.11 198.30Q1561.49 184.88 1556.87 171.02L1556.87 171.02L1517.05 171.02Q1509.79 194.12 1503.19 217.88L1503.19 217.88Q1502.31 221.40 1501.87 224.04Q1501.43 226.68 1501.43 228.44L1501.43 228.44Q1501.43 231.74 1502.75 231.74L1502.75 231.74L1518.59 231.74Q1519.91 231.74 1520.46 232.95Q1521.01 234.16 1521.01 235.26L1521.01 235.26Q1521.01 236.14 1520.46 237.57Q1519.91 239 1518.15 239L1518.15 239Q1514.63 239 1509.35 238.89Q1504.07 238.78 1498.79 238.78Q1493.51 238.78 1489.77 238.78L1489.77 238.78Q1483.39 238.78 1477.45 239.11Q1471.51 239.44 1465.35 239.44L1465.35 239.44Q1463.37 239.44 1463.37 235.70L1463.37 235.70Q1463.37 231.96 1465.35 231.96L1465.35 231.96L1476.35 231.96Q1481.19 231.96 1483.61 227.12L1483.61 227.12Q1489.99 213.48 1495.05 200.28Q1500.11 187.08 1505.17 172.78Q1510.23 158.48 1516.06 142.42Q1521.89 126.36 1529.59 107.22L1529.59 107.22Q1530.25 105.46 1530.91 103.81Q1531.57 102.16 1531.57 100.84L1531.57 100.84Q1531.57 98.86 1530.69 97.54Q1529.81 96.22 1529.81 95.34L1529.81 95.34Q1529.81 93.58 1532.01 93.58L1532.01 93.58Q1536.63 93.58 1539.05 92.04Q1541.47 90.50 1542.57 88.63Q1543.67 86.76 1544.55 85.22Q1545.43 83.68 1546.97 83.68L1546.97 83.68Q1547.85 83.68 1548.51 85.77Q1549.17 87.86 1550.05 90.28L1550.05 90.28L1594.27 209.74Q1599.11 222.50 1601.75 227.12Q1604.39 231.74 1605.93 231.74L1605.93 231.74L1613.85 231.74Q1616.05 231.74 1616.05 235.04L1616.05 235.04Q1616.05 236.58 1615.72 237.79Q1615.39 239 1614.29 239L1614.29 239Q1605.71 239 1599 238.89Q1592.29 238.78 1586.35 238.78L1586.35 238.78Q1580.63 238.78 1572.82 239.11Q1565.01 239.44 1558.41 239.44L1558.41 239.44Q1556.43 239.44 1556.43 235.48L1556.43 235.48Q1556.43 231.96 1558.41 231.96L1558.41 231.96L1570.95 231.96Q1577.11 231.96 1574.91 225.14ZM1537.95 113.82L1537.07 113.82Q1532.45 125.92 1528.27 137.91Q1524.09 149.90 1519.91 162.22L1519.91 162.22L1553.79 162.22Q1550.05 150.56 1545.98 138.57Q1541.91 126.58 1537.95 113.82L1537.95 113.82ZM1668.63 91.38L1698.55 91.38Q1726.05 91.38 1746.18 100.73Q1766.31 110.08 1777.20 126.69Q1788.09 143.30 1788.09 165.30L1788.09 165.30Q1788.09 182.46 1781.60 196.10Q1775.11 209.74 1763.45 219.31Q1751.79 228.88 1736.28 233.94Q1720.77 239 1702.73 239L1702.73 239L1676.99 239Q1662.91 239 1653.89 239.22Q1644.87 239.44 1639.59 239.44L1639.59 239.44Q1638.71 239.44 1638.27 238.34Q1637.83 237.24 1637.83 235.92L1637.83 235.92Q1637.83 234.38 1638.27 233.17Q1638.71 231.96 1639.59 231.96L1639.59 231.96L1649.05 231.96Q1654.77 231.96 1656.42 229.76Q1658.07 227.56 1658.07 221.84L1658.07 221.84L1658.07 117.12Q1658.07 108.54 1657.30 104.58Q1656.53 100.62 1655.54 99.52Q1654.55 98.42 1653.45 98.42L1653.45 98.42L1639.59 98.42Q1637.61 98.42 1637.61 95.12L1637.61 95.12Q1637.61 93.80 1638.16 92.37Q1638.71 90.94 1639.59 90.94L1639.59 90.94Q1642.23 90.94 1647.29 91.05Q1652.35 91.16 1658.18 91.27Q1664.01 91.38 1668.63 91.38L1668.63 91.38ZM1685.35 230.20L1703.39 229.98Q1721.43 229.76 1734.85 222.50Q1748.27 215.24 1755.64 202.04Q1763.01 188.84 1763.01 170.80L1763.01 170.80Q1763.01 151 1755.53 135.71Q1748.05 120.42 1731.88 111.07Q1715.71 101.72 1689.09 100.18L1689.09 100.18Q1685.13 99.96 1682.93 102.05Q1680.73 104.14 1680.73 109.20L1680.73 109.20L1680.73 210.84Q1680.73 219.20 1681.50 223.38Q1682.27 227.56 1683.37 228.88Q1684.47 230.20 1685.35 230.20L1685.35 230.20Z" fill="#ffffff" stroke="#ffffff" stroke-width="9" stroke-linejoin="round"/>
  <path d="M212.54 322.96L212.54 341.84Q216.06 341.76 219.34 341.56Q222.62 341.36 224.86 341.12Q227.10 340.88 227.34 340.72L227.34 340.72L228.14 336Q228.22 335.44 229.42 335.44L229.42 335.44Q229.90 335.44 230.30 335.60Q230.70 335.76 230.62 336.16L230.62 336.16Q230.38 338 230.30 339.52Q230.22 341.04 230.22 342.88L230.22 342.88Q230.22 344.64 230.30 346.52Q230.38 348.40 230.62 350.24L230.62 350.24Q230.70 350.56 230.22 350.72Q229.74 350.88 229.18 350.88L229.18 350.88Q228.14 350.88 228.14 350.40L228.14 350.40L227.26 345.60Q227.02 345.44 224.86 345.20Q222.70 344.96 219.42 344.72Q216.14 344.48 212.54 344.40L212.54 344.40L212.54 359.76Q212.54 362.80 212.82 364.32Q213.10 365.84 213.50 366.32Q213.90 366.80 214.22 366.80L214.22 366.80L218.30 366.80Q223.50 366.72 228.26 365.84Q233.02 364.96 235.26 363.44L235.26 363.44L235.82 359.04Q235.90 358.72 236.34 358.56Q236.78 358.40 237.34 358.40L237.34 358.40Q238.54 358.40 238.46 359.04L238.46 359.04Q238.06 362 237.90 365.36Q237.74 368.72 237.74 371.76L237.74 371.76Q237.74 372.32 236.54 372.32L236.54 372.32Q236.06 372.32 235.66 372.20Q235.26 372.08 235.26 371.76L235.26 371.76L235.26 370L215.50 370Q210.38 370 207.22 370.04Q204.06 370.08 202.26 370.08Q200.46 370.08 199.46 370.12Q198.46 370.16 197.58 370.16L197.58 370.16Q197.26 370.16 197.10 369.76Q196.94 369.36 196.94 368.88L196.94 368.88Q196.94 368.32 197.10 367.88Q197.26 367.44 197.58 367.44L197.58 367.44L201.02 367.44Q203.10 367.44 203.70 366.64Q204.30 365.84 204.30 363.76L204.30 363.76L204.30 325.84Q204.30 322.72 204.02 321.24Q203.74 319.76 203.38 319.28Q203.02 318.80 202.62 318.80L202.62 318.80L197.98 318.80Q197.34 318.80 197.34 317.28L197.34 317.28Q197.34 316.88 197.46 316.52Q197.58 316.16 197.98 316.16L197.98 316.16Q200.06 316.16 202.54 316.24Q205.02 316.32 208.06 316.32L208.06 316.32L231.26 316.32L231.26 314.64Q231.26 314.24 231.66 314.08Q232.06 313.92 232.46 313.92L232.46 313.92Q232.86 313.92 233.22 314.08Q233.58 314.24 233.58 314.64L233.58 314.64Q233.58 317.60 233.74 320.92Q233.90 324.24 234.38 326.80L234.38 326.80Q234.54 327.12 234.14 327.28Q233.74 327.44 233.26 327.44L233.26 327.44Q232.78 327.44 232.34 327.28Q231.90 327.12 231.82 326.80L231.82 326.80Q231.42 325.12 230.78 323.36Q230.14 321.60 228.78 320.96L228.78 320.96Q226.70 320.16 223.54 319.76Q220.38 319.36 215.18 319.28L215.18 319.28Q213.58 319.36 213.06 320.20Q212.54 321.04 212.54 322.96L212.54 322.96ZM265.26 338.96L265.42 338.96Q267.82 336.72 271.02 335.36Q274.22 334 276.86 334L276.86 334Q282.78 334 286.46 337.48Q290.14 340.96 290.14 349.36L290.14 349.36L290.14 360.56Q290.14 363.60 290.38 365.12Q290.62 366.64 291.02 367.12Q291.42 367.60 291.82 367.60L291.82 367.60L295.74 367.60Q296.06 367.60 296.22 368.08Q296.38 368.56 296.38 368.96L296.38 368.96Q296.38 369.28 296.26 369.64Q296.14 370 295.90 370L295.90 370Q293.74 370 292.46 369.96Q291.18 369.92 290.02 369.92Q288.86 369.92 287.18 369.92L287.18 369.92Q283.74 369.92 281.98 370.04Q280.22 370.16 277.90 370.16L277.90 370.16Q277.66 370.16 277.50 369.72Q277.34 369.28 277.34 368.96L277.34 368.96Q277.34 368.56 277.46 368.16Q277.58 367.76 277.74 367.76L277.74 367.76L282.38 367.76Q283.34 367.76 283.34 366.40L283.34 366.40L283.34 352.88Q283.34 347.44 282.42 344.28Q281.50 341.12 279.30 339.76Q277.10 338.40 273.26 338.40L273.26 338.40Q270.86 338.40 268.78 339.32Q266.70 340.24 265.50 341.60L265.50 341.60L265.50 360.56Q265.50 363.60 265.74 365.12Q265.98 366.64 266.38 367.12Q266.78 367.60 267.18 367.60L267.18 367.60L271.10 367.60Q271.42 367.60 271.58 368.08Q271.74 368.56 271.74 368.96L271.74 368.96Q271.74 369.28 271.62 369.64Q271.50 370 271.26 370L271.26 370Q269.10 370 267.78 369.96Q266.46 369.92 265.34 369.92Q264.22 369.92 262.54 369.92L262.54 369.92Q259.10 369.92 257.34 370.04Q255.58 370.16 253.26 370.16L253.26 370.16Q253.02 370.16 252.86 369.72Q252.70 369.28 252.70 368.96L252.70 368.96Q252.70 368.56 252.82 368.16Q252.94 367.76 253.10 367.76L253.10 367.76L257.74 367.76Q258.70 367.76 258.70 366.40L258.70 366.40L258.70 347.60Q258.70 344.16 258.38 342.52Q258.06 340.88 257.54 340.36Q257.02 339.84 256.46 339.84L256.46 339.84L254.86 339.84Q254.62 339.84 254.42 339.40Q254.22 338.96 254.22 338.56L254.22 338.56Q254.22 338.32 254.30 337.88Q254.38 337.44 254.70 337.44L254.70 337.44Q256.54 337.44 258.14 336.60Q259.74 335.76 260.98 334.60Q262.22 333.44 263.10 332.60Q263.98 331.76 264.30 331.76L264.30 331.76Q265.42 331.76 265.42 332.72L265.42 332.72Q265.42 334.16 265.38 335.08Q265.34 336 265.30 336.80Q265.26 337.60 265.26 338.96L265.26 338.96ZM324.54 334L324.54 334Q327.50 334 330.22 335.24Q332.94 336.48 334.94 338.64L334.94 338.64Q336.78 336.48 338.70 335.40Q340.62 334.32 342.22 334.32L342.22 334.32Q344.30 334.32 345.42 335.40Q346.54 336.48 346.54 337.84L346.54 337.84Q346.54 338.80 345.98 339.76Q345.42 340.72 344.30 341.36L344.30 341.36Q343.10 340.40 341.90 339.68Q340.70 338.96 339.10 338.96L339.10 338.96Q338.38 338.96 337.54 339.40Q336.70 339.84 336.70 340.56L336.70 340.56Q336.70 341.28 337.54 342.76Q338.38 344.24 338.38 347.28L338.38 347.28Q338.38 351.84 336.42 354.68Q334.46 357.52 331.22 358.84Q327.98 360.16 324.14 360.24L324.14 360.24Q321.02 360.24 319.10 361.04Q317.18 361.84 316.34 362.84Q315.50 363.84 315.50 364.56L315.50 364.56Q315.50 365.60 316.58 366.16Q317.66 366.72 319.30 366.92Q320.94 367.12 322.62 367.12L322.62 367.12Q325.50 367.12 327.54 366.92Q329.58 366.72 332.06 366.72L332.06 366.72Q335.58 366.72 338.62 367.64Q341.66 368.56 343.54 370.52Q345.42 372.48 345.42 375.68L345.42 375.68Q345.42 378.96 343.34 381.96Q341.26 384.96 337.82 387.32Q334.38 389.68 330.22 391.04Q326.06 392.40 321.82 392.40L321.82 392.40Q318.14 392.40 315.14 391.64Q312.14 390.88 310.42 389.16Q308.70 387.44 308.70 384.48L308.70 384.48Q308.70 382.32 310.10 380.04Q311.50 377.76 313.82 375.88Q316.14 374 318.94 373.04L318.94 373.04L318.94 372.80Q317.02 372.56 315.06 371.92Q313.10 371.28 311.82 370.04Q310.54 368.80 310.54 366.88L310.54 366.88Q310.54 365.84 311.26 364.28Q311.98 362.72 313.70 361.32Q315.42 359.92 318.22 359.28L318.22 359.28L318.22 359.12Q314.54 357.76 312.26 354.56Q309.98 351.36 309.98 347.44L309.98 347.44Q309.98 343.20 312.06 340.20Q314.14 337.20 317.46 335.60Q320.78 334 324.54 334ZM323.98 357.60L323.98 357.60Q326.94 357.60 328.58 356.12Q330.22 354.64 330.90 352.28Q331.58 349.92 331.58 347.28L331.58 347.28Q331.58 344.88 330.94 342.40Q330.30 339.92 328.70 338.28Q327.10 336.64 324.14 336.64L324.14 336.64Q321.18 336.64 319.58 338.24Q317.98 339.84 317.38 342.28Q316.78 344.72 316.78 347.28L316.78 347.28Q316.78 349.68 317.42 352.04Q318.06 354.40 319.62 356Q321.18 357.60 323.98 357.60ZM330.22 372.64L330.22 372.64Q328.06 372.64 326.58 372.80Q325.10 372.96 322.94 373.04L322.94 373.04Q319.58 374.24 317.10 376.96Q314.62 379.68 314.62 382.96L314.62 382.96Q314.62 386.32 317.06 387.96Q319.50 389.60 323.66 389.60L323.66 389.60Q326.06 389.60 328.86 388.76Q331.66 387.92 334.18 386.40Q336.70 384.88 338.34 382.76Q339.98 380.64 339.98 378.08L339.98 378.08Q339.98 376.08 338.54 374.88Q337.10 373.68 334.86 373.16Q332.62 372.64 330.22 372.64ZM370.06 346.24L370.06 360.56Q370.06 363.60 370.30 365.12Q370.54 366.64 370.94 367.12Q371.34 367.60 371.74 367.60L371.74 367.60L375.66 367.60Q375.98 367.60 376.14 368.08Q376.30 368.56 376.30 368.96L376.30 368.96Q376.30 369.28 376.18 369.64Q376.06 370 375.82 370L375.82 370Q373.66 370 372.34 369.96Q371.02 369.92 369.90 369.92Q368.78 369.92 367.10 369.92L367.10 369.92Q363.66 369.92 361.90 370.04Q360.14 370.16 357.82 370.16L357.82 370.16Q357.58 370.16 357.42 369.72Q357.26 369.28 357.26 368.96L357.26 368.96Q357.26 368.56 357.38 368.16Q357.50 367.76 357.66 367.76L357.66 367.76L362.30 367.76Q363.26 367.76 363.26 366.40L363.26 366.40L363.26 347.60Q363.26 344.16 362.94 342.52Q362.62 340.88 362.10 340.36Q361.58 339.84 361.02 339.84L361.02 339.84L359.42 339.84Q359.18 339.84 358.98 339.40Q358.78 338.96 358.78 338.56L358.78 338.56Q358.78 338.32 358.86 337.88Q358.94 337.44 359.26 337.44L359.26 337.44Q361.18 337.44 362.78 336.60Q364.38 335.76 365.66 334.60Q366.94 333.44 367.82 332.60Q368.70 331.76 369.18 331.76L369.18 331.76Q370.38 331.76 370.38 332.72L370.38 332.72Q370.38 333.84 370.34 334.76Q370.30 335.68 370.22 337Q370.14 338.32 370.10 340.48Q370.06 342.64 370.06 346.24L370.06 346.24ZM366.70 325.60L366.70 325.60Q364.94 325.60 363.78 324.36Q362.62 323.12 362.62 321.36L362.62 321.36Q362.62 319.68 363.86 318.56Q365.10 317.44 366.70 317.44L366.70 317.44Q368.30 317.44 369.54 318.60Q370.78 319.76 370.78 321.36L370.78 321.36Q370.78 323.12 369.62 324.36Q368.46 325.60 366.70 325.60ZM401.90 338.96L402.06 338.96Q404.46 336.72 407.66 335.36Q410.86 334 413.50 334L413.50 334Q419.42 334 423.10 337.48Q426.78 340.96 426.78 349.36L426.78 349.36L426.78 360.56Q426.78 363.60 427.02 365.12Q427.26 366.64 427.66 367.12Q428.06 367.60 428.46 367.60L428.46 367.60L432.38 367.60Q432.70 367.60 432.86 368.08Q433.02 368.56 433.02 368.96L433.02 368.96Q433.02 369.28 432.90 369.64Q432.78 370 432.54 370L432.54 370Q430.38 370 429.10 369.96Q427.82 369.92 426.66 369.92Q425.50 369.92 423.82 369.92L423.82 369.92Q420.38 369.92 418.62 370.04Q416.86 370.16 414.54 370.16L414.54 370.16Q414.30 370.16 414.14 369.72Q413.98 369.28 413.98 368.96L413.98 368.96Q413.98 368.56 414.10 368.16Q414.22 367.76 414.38 367.76L414.38 367.76L419.02 367.76Q419.98 367.76 419.98 366.40L419.98 366.40L419.98 352.88Q419.98 347.44 419.06 344.28Q418.14 341.12 415.94 339.76Q413.74 338.40 409.90 338.40L409.90 338.40Q407.50 338.40 405.42 339.32Q403.34 340.24 402.14 341.60L402.14 341.60L402.14 360.56Q402.14 363.60 402.38 365.12Q402.62 366.64 403.02 367.12Q403.42 367.60 403.82 367.60L403.82 367.60L407.74 367.60Q408.06 367.60 408.22 368.08Q408.38 368.56 408.38 368.96L408.38 368.96Q408.38 369.28 408.26 369.64Q408.14 370 407.90 370L407.90 370Q405.74 370 404.42 369.96Q403.10 369.92 401.98 369.92Q400.86 369.92 399.18 369.92L399.18 369.92Q395.74 369.92 393.98 370.04Q392.22 370.16 389.90 370.16L389.90 370.16Q389.66 370.16 389.50 369.72Q389.34 369.28 389.34 368.96L389.34 368.96Q389.34 368.56 389.46 368.16Q389.58 367.76 389.74 367.76L389.74 367.76L394.38 367.76Q395.34 367.76 395.34 366.40L395.34 366.40L395.34 347.60Q395.34 344.16 395.02 342.52Q394.70 340.88 394.18 340.36Q393.66 339.84 393.10 339.84L393.10 339.84L391.50 339.84Q391.26 339.84 391.06 339.40Q390.86 338.96 390.86 338.56L390.86 338.56Q390.86 338.32 390.94 337.88Q391.02 337.44 391.34 337.44L391.34 337.44Q393.18 337.44 394.78 336.60Q396.38 335.76 397.62 334.60Q398.86 333.44 399.74 332.60Q400.62 331.76 400.94 331.76L400.94 331.76Q402.06 331.76 402.06 332.72L402.06 332.72Q402.06 334.16 402.02 335.08Q401.98 336 401.94 336.80Q401.90 337.60 401.90 338.96L401.90 338.96ZM479.90 337.04L477.90 337.04Q476.94 337.04 476.38 338.16L476.38 338.16Q474.54 341.76 472.58 346.56Q470.62 351.36 468.70 356.56Q466.78 361.76 465.06 366.60Q463.34 371.44 461.98 375.04L461.98 375.04Q457.74 386 453.26 390.44Q448.78 394.88 444.06 394.88L444.06 394.88Q441.74 394.88 440.26 393.96Q438.78 393.04 438.74 391.40Q438.70 389.76 440.62 387.68L440.62 387.68Q440.62 387.68 442.14 388.48Q443.66 389.28 445.74 389.28L445.74 389.28Q447.74 389.28 449.70 387.84Q451.66 386.40 453.38 384.12Q455.10 381.84 456.42 379.32Q457.74 376.80 458.50 374.60Q459.26 372.40 459.26 371.20L459.26 371.20Q459.26 368.64 457.98 364.68Q456.70 360.72 454.74 356.20Q452.78 351.68 450.74 347.36Q448.70 343.04 447.26 339.84L447.26 339.84Q446.46 338.16 445.66 337.64Q444.86 337.12 443.02 337.12L443.02 337.12Q442.54 337.12 442.54 336.16L442.54 336.16Q442.54 335.76 442.66 335.36Q442.78 334.96 443.02 334.96L443.02 334.96Q445.26 334.96 446.86 335.04Q448.46 335.12 450.62 335.12L450.62 335.12Q452.14 335.12 454.34 335.04Q456.54 334.96 459.26 334.96L459.26 334.96Q459.58 334.96 459.66 335.28Q459.74 335.60 459.74 336L459.74 336Q459.74 337.04 459.26 337.04L459.26 337.04L455.66 337.04Q454.62 337.04 454.62 337.76L454.62 337.76Q454.62 338.32 455.98 341.76Q457.34 345.20 459.42 350.60Q461.50 356 463.66 362.48L463.66 362.48Q465.50 356.48 467.22 351.72Q468.94 346.96 470.06 343.60Q471.18 340.24 471.18 338.48L471.18 338.48Q471.18 337.60 470.82 337.36Q470.46 337.12 470.14 337.12L470.14 337.12L466.38 337.12Q465.98 337.12 465.98 336.24L465.98 336.24Q465.98 335.84 466.10 335.40Q466.22 334.96 466.38 334.96L466.38 334.96Q469.42 334.96 470.86 335.04Q472.30 335.12 474.06 335.12L474.06 335.12Q475.50 335.12 476.70 335.04Q477.90 334.96 479.90 334.96L479.90 334.96Q480.22 334.96 480.34 335.28Q480.46 335.60 480.46 336L480.46 336Q480.46 337.04 479.90 337.04L479.90 337.04ZM519.18 350L519.18 350Q515.02 350.32 509.18 350.24Q503.34 350.16 495.66 350.64L495.66 350.64Q495.66 354.40 497.02 357Q498.38 359.60 500.54 361.20Q502.70 362.80 505.22 363.52Q507.74 364.24 510.06 364.24L510.06 364.24Q513.34 364.24 515.38 363.60Q517.42 362.96 518.58 362.16Q519.74 361.36 520.38 360.72Q521.02 360.08 521.58 360.08L521.58 360.08Q522.46 360.08 522.46 361.04L522.46 361.04Q522.46 361.52 521.70 363.12Q520.94 364.72 519.30 366.56Q517.66 368.40 514.86 369.72Q512.06 371.04 507.98 371.04L507.98 371.04Q503.18 371.04 499.42 368.52Q495.66 366 493.50 362Q491.34 358 491.34 353.60L491.34 353.60Q491.34 349.04 492.98 345.40Q494.62 341.76 497.30 339.24Q499.98 336.72 503.18 335.40Q506.38 334.08 509.58 334.08L509.58 334.08Q513.02 334.08 515.78 335.76Q518.54 337.44 520.22 340.44Q521.90 343.44 521.90 347.60L521.90 347.60Q521.90 348.88 521.34 349.36Q520.78 349.84 519.18 350ZM507.42 338.40L507.42 338.40Q505.02 338.40 502.58 339.48Q500.14 340.56 498.34 342.72Q496.54 344.88 495.90 348.16L495.90 348.16Q498.70 347.84 501.90 347.60Q505.10 347.36 507.98 347.12Q510.86 346.88 512.46 346.64L512.46 346.64Q513.90 346.48 514.50 346.16Q515.10 345.84 515.10 345.12L515.10 345.12Q515.10 342.40 512.90 340.40Q510.70 338.40 507.42 338.40ZM548.86 339.92L549.02 339.92Q549.98 338.88 551.74 337.52Q553.50 336.16 555.74 335.08Q557.98 334 560.22 334L560.22 334Q562.30 334 563.30 335Q564.30 336 564.30 337.36L564.30 337.36Q564.30 338.64 563.38 340Q562.46 341.36 560.70 342.16L560.70 342.16Q559.34 340.96 557.86 340.24Q556.38 339.52 554.94 339.52L554.94 339.52Q553.10 339.52 551.58 340.44Q550.06 341.36 549.10 342.64L549.10 342.64L549.10 360.56Q549.10 363.60 549.34 365.12Q549.58 366.64 549.98 367.12Q550.38 367.60 550.78 367.60L550.78 367.60L554.70 367.60Q555.02 367.60 555.18 368.08Q555.34 368.56 555.34 368.96L555.34 368.96Q555.34 369.28 555.22 369.64Q555.10 370 554.86 370L554.86 370Q552.70 370 551.38 369.96Q550.06 369.92 548.94 369.92Q547.82 369.92 546.14 369.92L546.14 369.92Q542.70 369.92 540.94 370.04Q539.18 370.16 536.86 370.16L536.86 370.16Q536.62 370.16 536.46 369.72Q536.30 369.28 536.30 368.96L536.30 368.96Q536.30 368.56 536.42 368.16Q536.54 367.76 536.70 367.76L536.70 367.76L541.34 367.76Q542.30 367.76 542.30 366.40L542.30 366.40L542.30 347.60Q542.30 344.16 541.98 342.52Q541.66 340.88 541.14 340.36Q540.62 339.84 540.06 339.84L540.06 339.84L538.46 339.84Q538.22 339.84 538.02 339.40Q537.82 338.96 537.82 338.56L537.82 338.56Q537.82 338.32 537.90 337.88Q537.98 337.44 538.30 337.44L538.30 337.44Q540.14 337.44 541.74 336.60Q543.34 335.76 544.58 334.60Q545.82 333.44 546.70 332.60Q547.58 331.76 547.90 331.76L547.90 331.76Q549.02 331.76 549.02 332.72L549.02 332.72Q549.02 334.96 548.94 336.44Q548.86 337.92 548.86 339.92L548.86 339.92ZM588.06 346.24L588.06 360.56Q588.06 363.60 588.30 365.12Q588.54 366.64 588.94 367.12Q589.34 367.60 589.74 367.60L589.74 367.60L593.66 367.60Q593.98 367.60 594.14 368.08Q594.30 368.56 594.30 368.96L594.30 368.96Q594.30 369.28 594.18 369.64Q594.06 370 593.82 370L593.82 370Q591.66 370 590.34 369.96Q589.02 369.92 587.90 369.92Q586.78 369.92 585.10 369.92L585.10 369.92Q581.66 369.92 579.90 370.04Q578.14 370.16 575.82 370.16L575.82 370.16Q575.58 370.16 575.42 369.72Q575.26 369.28 575.26 368.96L575.26 368.96Q575.26 368.56 575.38 368.16Q575.50 367.76 575.66 367.76L575.66 367.76L580.30 367.76Q581.26 367.76 581.26 366.40L581.26 366.40L581.26 347.60Q581.26 344.16 580.94 342.52Q580.62 340.88 580.10 340.36Q579.58 339.84 579.02 339.84L579.02 339.84L577.42 339.84Q577.18 339.84 576.98 339.40Q576.78 338.96 576.78 338.56L576.78 338.56Q576.78 338.32 576.86 337.88Q576.94 337.44 577.26 337.44L577.26 337.44Q579.18 337.44 580.78 336.60Q582.38 335.76 583.66 334.60Q584.94 333.44 585.82 332.60Q586.70 331.76 587.18 331.76L587.18 331.76Q588.38 331.76 588.38 332.72L588.38 332.72Q588.38 333.84 588.34 334.76Q588.30 335.68 588.22 337Q588.14 338.32 588.10 340.48Q588.06 342.64 588.06 346.24L588.06 346.24ZM584.70 325.60L584.70 325.60Q582.94 325.60 581.78 324.36Q580.62 323.12 580.62 321.36L580.62 321.36Q580.62 319.68 581.86 318.56Q583.10 317.44 584.70 317.44L584.70 317.44Q586.30 317.44 587.54 318.60Q588.78 319.76 588.78 321.36L588.78 321.36Q588.78 323.12 587.62 324.36Q586.46 325.60 584.70 325.60ZM634.62 344.08L634.62 344.08Q634.62 346.48 634.42 349.48Q634.22 352.48 634.02 355.32Q633.82 358.16 633.82 360.16L633.82 360.16Q633.82 363.28 634.78 364.40Q635.74 365.52 637.34 365.52L637.34 365.52Q639.18 365.52 639.78 364.68Q640.38 363.84 640.94 363.84L640.94 363.84Q641.74 363.84 641.74 364.64L641.74 364.64Q641.74 365.92 640.66 367.40Q639.58 368.88 637.90 369.88Q636.22 370.88 634.30 370.88L634.30 370.88Q631.10 370.88 629.66 368.32Q628.22 365.76 628.30 362L628.30 362L628.06 362Q626.70 365.84 623.26 368.44Q619.82 371.04 615.42 371.04L615.42 371.04Q612.22 371.04 610.22 369.52Q608.22 368 608.22 365.04L608.22 365.04Q608.22 360.32 613.54 356.40Q618.86 352.48 627.90 349.76L627.90 349.76Q627.98 348.72 628.02 347.88Q628.06 347.04 628.06 346.56L628.06 346.56Q628.06 342.56 626.54 339.60Q625.02 336.64 621.26 336.64L621.26 336.64Q618.38 336.64 616.26 338.40Q614.14 340.16 614.14 343.92L614.14 343.92Q614.14 344.32 614.14 344.76Q614.14 345.20 614.22 345.68L614.22 345.68Q613.90 346.08 613.30 346.28Q612.70 346.48 612.06 346.48L612.06 346.48Q610.70 346.48 609.38 345.60Q608.06 344.72 608.06 342.72L608.06 342.72Q608.06 340.16 610.30 338.20Q612.54 336.24 615.82 335.12Q619.10 334 622.22 334L622.22 334Q627.90 334 631.26 336.28Q634.62 338.56 634.62 344.08ZM619.18 366.64L619.18 366.64Q622.22 366.64 624.90 362.88Q627.58 359.12 627.90 352.08L627.90 352.08Q623.10 353.84 620.46 355.60Q617.82 357.36 616.74 359.16Q615.66 360.96 615.66 362.88L615.66 362.88Q615.66 364.56 616.50 365.60Q617.34 366.64 619.18 366.64ZM717.82 339.92L717.82 358.32Q717.82 361.04 718.02 362.56Q718.22 364.08 718.94 364.72L718.94 364.72Q719.58 365.20 720.62 365.20L720.62 365.20Q721.34 365.20 722.06 365.08Q722.78 364.96 723.34 364.96L723.34 364.96Q723.58 364.96 723.78 365.36Q723.98 365.76 723.98 366.16L723.98 366.16Q723.98 367.20 723.50 367.36L723.50 367.36Q720.06 367.92 717.98 368.80Q715.90 369.68 714.82 370.36Q713.74 371.04 713.18 371.04L713.18 371.04Q712.30 371.04 711.90 369.88Q711.50 368.72 711.38 367.28Q711.26 365.84 711.18 365.04L711.18 365.04L711.02 365.04Q709.02 367.52 705.70 369.28Q702.38 371.04 697.74 371.04L697.74 371.04Q690.46 371.04 686.34 366.24Q682.22 361.44 682.22 353.68L682.22 353.68Q682.22 348.24 684.74 343.80Q687.26 339.36 691.50 336.68Q695.74 334 700.78 334L700.78 334Q705.18 334 707.46 335.24Q709.74 336.48 711.02 337.52L711.02 337.52L711.02 323.28Q711.02 319.84 710.70 318.20Q710.38 316.56 709.94 316.04Q709.50 315.52 709.02 315.52L709.02 315.52L705.42 315.52Q705.18 315.52 704.98 315.08Q704.78 314.64 704.78 314.24L704.78 314.24Q704.78 314 704.86 313.56Q704.94 313.12 705.26 313.12L705.26 313.12Q709.58 313.12 712.34 312Q715.10 310.88 716.70 310.24L716.70 310.24Q717.90 310.24 717.90 311.20L717.90 311.20Q717.90 312.32 717.90 315.24Q717.90 318.16 717.86 322.24Q717.82 326.32 717.82 330.88Q717.82 335.44 717.82 339.92L717.82 339.92ZM711.02 362.48L711.02 348.16Q710.46 341.76 707.78 339.32Q705.10 336.88 701.02 336.88L701.02 336.88Q697.10 336.88 694.70 339.28Q692.30 341.68 691.26 345.24Q690.22 348.80 690.22 352.40L690.22 352.40Q690.22 355.92 691.66 359.08Q693.10 362.24 695.82 364.20Q698.54 366.16 702.38 366.16L702.38 366.16Q706.14 366.16 708.02 364.80Q709.90 363.44 711.02 362.48L711.02 362.48ZM763.90 350L763.90 350Q759.74 350.32 753.90 350.24Q748.06 350.16 740.38 350.64L740.38 350.64Q740.38 354.40 741.74 357Q743.10 359.60 745.26 361.20Q747.42 362.80 749.94 363.52Q752.46 364.24 754.78 364.24L754.78 364.24Q758.06 364.24 760.10 363.60Q762.14 362.96 763.30 362.16Q764.46 361.36 765.10 360.72Q765.74 360.08 766.30 360.08L766.30 360.08Q767.18 360.08 767.18 361.04L767.18 361.04Q767.18 361.52 766.42 363.12Q765.66 364.72 764.02 366.56Q762.38 368.40 759.58 369.72Q756.78 371.04 752.70 371.04L752.70 371.04Q747.90 371.04 744.14 368.52Q740.38 366 738.22 362Q736.06 358 736.06 353.60L736.06 353.60Q736.06 349.04 737.70 345.40Q739.34 341.76 742.02 339.24Q744.70 336.72 747.90 335.40Q751.10 334.08 754.30 334.08L754.30 334.08Q757.74 334.08 760.50 335.76Q763.26 337.44 764.94 340.44Q766.62 343.44 766.62 347.60L766.62 347.60Q766.62 348.88 766.06 349.36Q765.50 349.84 763.90 350ZM752.14 338.40L752.14 338.40Q749.74 338.40 747.30 339.48Q744.86 340.56 743.06 342.72Q741.26 344.88 740.62 348.16L740.62 348.16Q743.42 347.84 746.62 347.60Q749.82 347.36 752.70 347.12Q755.58 346.88 757.18 346.64L757.18 346.64Q758.62 346.48 759.22 346.16Q759.82 345.84 759.82 345.12L759.82 345.12Q759.82 342.40 757.62 340.40Q755.42 338.40 752.14 338.40ZM846.22 356.32L846.22 356.32Q846.22 360.72 843.54 364.04Q840.86 367.36 836.50 369.20Q832.14 371.04 827.10 371.04L827.10 371.04Q823.66 371.04 820.66 370.24Q817.66 369.44 815.82 368.64L815.82 368.64L816.46 370.24Q816.70 370.80 816.06 371.20Q815.42 371.60 814.70 371.60L814.70 371.60Q814.06 371.60 813.82 371.20L813.82 371.20Q813.18 369.44 812.50 366.84Q811.82 364.24 811.34 361.40Q810.86 358.56 810.70 356.16L810.70 356.16Q810.70 355.76 811.10 355.56Q811.50 355.36 812.06 355.36L812.06 355.36Q812.46 355.36 812.86 355.48Q813.26 355.60 813.34 355.92L813.34 355.92Q813.82 357.44 814.90 359.48Q815.98 361.52 817.74 363.48Q819.50 365.44 822.02 366.72Q824.54 368 827.74 368L827.74 368Q832.70 368 835.26 365.32Q837.82 362.64 837.82 359.44L837.82 359.44Q837.82 355.60 836.06 352.96Q834.30 350.32 831.46 348.40Q828.62 346.48 825.50 344.72Q822.38 342.96 819.54 340.96Q816.70 338.96 814.94 336.12Q813.18 333.28 813.18 329.20L813.18 329.20Q813.18 325.36 815.54 322.20Q817.90 319.04 822.06 317.16Q826.22 315.28 831.58 315.28L831.58 315.28Q834.86 315.28 837.06 315.88Q839.26 316.48 839.26 316.48L839.26 316.48Q839.18 316.24 839.06 315.52Q838.94 314.80 838.94 314.64L838.94 314.64Q838.86 314.24 839.26 314.04Q839.66 313.84 840.14 313.84L840.14 313.84Q841.10 313.84 841.34 314.48L841.34 314.48Q842.30 317.84 842.86 321.28Q843.42 324.72 843.50 327.20L843.50 327.20Q843.42 327.44 842.90 327.56Q842.38 327.68 841.82 327.68L841.82 327.68Q841.10 327.68 840.86 327.44L840.86 327.44Q840.30 325.44 839.26 323.36Q838.22 321.28 836.14 319.80Q834.06 318.32 830.38 318.32L830.38 318.32Q826.70 318.32 824.70 319.64Q822.70 320.96 821.94 322.92Q821.18 324.88 821.18 326.80L821.18 326.80Q821.18 330 822.98 332.24Q824.78 334.48 827.66 336.24Q830.54 338 833.70 339.76Q836.86 341.52 839.74 343.68Q842.62 345.84 844.42 348.88Q846.22 351.92 846.22 356.32ZM879.98 334L879.98 334Q883.74 334 887.18 335.40Q890.62 336.80 893.34 339.32Q896.06 341.84 897.66 345.20Q899.26 348.56 899.26 352.40L899.26 352.40Q899.26 357.76 896.62 362Q893.98 366.24 889.62 368.64Q885.26 371.04 879.98 371.04L879.98 371.04Q874.78 371.04 870.42 368.48Q866.06 365.92 863.42 361.64Q860.78 357.36 860.78 352.08L860.78 352.08Q860.78 348.24 862.38 344.96Q863.98 341.68 866.70 339.20Q869.42 336.72 872.86 335.36Q876.30 334 879.98 334ZM879.66 336.88L879.66 336.88Q876.70 336.88 874.62 338.28Q872.54 339.68 871.26 342Q869.98 344.32 869.38 347.04Q868.78 349.76 868.78 352.40L868.78 352.40Q868.78 356.16 869.90 359.80Q871.02 363.44 873.58 365.80Q876.14 368.16 880.38 368.16L880.38 368.16Q884.38 368.16 886.74 365.84Q889.10 363.52 890.18 359.96Q891.26 356.40 891.26 352.88L891.26 352.88Q891.26 349.04 890.18 345.36Q889.10 341.68 886.54 339.28Q883.98 336.88 879.66 336.88ZM918.62 366.40L918.62 338.08L913.02 338.08Q912.14 338.08 912.14 336.72L912.14 336.72Q912.14 336.24 912.34 335.84Q912.54 335.44 912.86 335.44L912.86 335.44Q913.74 335.44 914.94 335.36Q916.14 335.28 917.18 334.92Q918.22 334.56 918.46 333.76L918.46 333.76Q919.18 331.52 919.86 328.64Q920.54 325.76 921.62 322.88Q922.70 320 924.62 317.56Q926.54 315.12 929.62 313.60Q932.70 312.08 937.34 312.08L937.34 312.08Q940.62 312.08 942.86 313.68Q945.10 315.28 945.10 317.20L945.10 317.20Q945.10 318.32 944.26 319.44Q943.42 320.56 941.10 321.28L941.10 321.28Q939.82 319.28 938.10 317.36Q936.38 315.44 933.66 315.44L933.66 315.44Q930.62 315.44 928.90 317.24Q927.18 319.04 926.46 321.76Q925.74 324.48 925.58 327.44Q925.42 330.40 925.42 332.72L925.42 332.72L925.42 335.04L934.46 335.04Q934.86 335.04 935.10 335.60Q935.34 336.16 935.34 336.72L935.34 336.72Q935.34 337.12 935.18 337.60Q935.02 338.08 934.62 338.08L934.62 338.08L925.42 338.08L925.42 360.56Q925.42 363.60 925.66 365.12Q925.90 366.64 926.30 367.12Q926.70 367.60 927.10 367.60L927.10 367.60L931.02 367.60Q931.34 367.60 931.50 368.08Q931.66 368.56 931.66 368.96L931.66 368.96Q931.66 369.28 931.54 369.64Q931.42 370 931.18 370L931.18 370Q929.02 370 927.70 369.96Q926.38 369.92 925.26 369.92Q924.14 369.92 922.46 369.92L922.46 369.92Q919.02 369.92 917.26 370.04Q915.50 370.16 913.18 370.16L913.18 370.16Q912.94 370.16 912.78 369.72Q912.62 369.28 912.62 368.96L912.62 368.96Q912.62 368.56 912.74 368.16Q912.86 367.76 913.02 367.76L913.02 367.76L917.66 367.76Q918.62 367.76 918.62 366.40L918.62 366.40ZM952.78 360.40L952.78 338.08L948.70 338.08Q948.38 338.08 948.14 337.64Q947.90 337.20 947.90 336.88L947.90 336.88Q947.90 336.56 948.06 336.16Q948.22 335.76 948.54 335.68L948.54 335.68Q952.54 334.88 954.70 331.80Q956.86 328.72 958.22 324.80L958.22 324.80Q958.38 324.40 958.70 324.32Q959.02 324.24 959.26 324.24L959.26 324.24Q960.06 324.24 960.06 325.28L960.06 325.28Q960.06 327.04 959.82 329.16Q959.58 331.28 959.58 335.04L959.58 335.04L969.50 335.04Q969.90 335.04 970.10 335.60Q970.30 336.16 970.30 336.72L970.30 336.72Q970.30 337.12 970.18 337.60Q970.06 338.08 969.66 338.08L969.66 338.08L959.58 338.08L959.58 358.64Q959.58 362.48 960.90 364.36Q962.22 366.24 965.50 366.24L965.50 366.24Q967.26 366.24 968.26 365.44Q969.26 364.64 969.86 363.88Q970.46 363.12 970.86 363.12L970.86 363.12Q971.66 363.12 971.66 363.84L971.66 363.84Q971.66 365.04 970.50 366.80Q969.34 368.56 967.18 369.92Q965.02 371.28 961.98 371.28L961.98 371.28Q957.74 371.28 955.26 368.52Q952.78 365.76 952.78 360.40L952.78 360.40ZM1036.78 337.04L1034.70 337.04Q1033.82 337.04 1033.42 337.76L1033.42 337.76Q1032.38 339.44 1030.90 342.92Q1029.42 346.40 1027.74 350.68Q1026.06 354.96 1024.50 359.16Q1022.94 363.36 1021.82 366.60Q1020.70 369.84 1020.30 371.12L1020.30 371.12Q1019.98 371.84 1018.70 371.84L1018.70 371.84Q1017.50 371.84 1017.18 371.04L1017.18 371.04Q1016.70 368.96 1015.38 365.40Q1014.06 361.84 1012.38 357.56Q1010.70 353.28 1008.94 349.12L1008.94 349.12Q1007.18 353.52 1005.46 358.08Q1003.74 362.64 1002.50 366.20Q1001.26 369.76 1000.86 371.12L1000.86 371.12Q1000.54 371.84 999.26 371.84L999.26 371.84Q998.06 371.84 997.74 371.04L997.74 371.04Q997.18 368.88 995.70 365.04Q994.22 361.20 992.22 356.64Q990.22 352.08 988.22 347.72Q986.22 343.36 984.70 340.16L984.70 340.16Q983.74 338.16 982.94 337.64Q982.14 337.12 980.46 337.12L980.46 337.12Q979.98 337.12 979.98 336.16L979.98 336.16Q979.98 335.76 980.10 335.36Q980.22 334.96 980.46 334.96L980.46 334.96Q982.70 334.96 984.30 335.04Q985.90 335.12 988.06 335.12L988.06 335.12Q989.58 335.12 991.18 335.04Q992.78 334.96 995.50 334.96L995.50 334.96Q995.82 334.96 995.90 335.28Q995.98 335.60 995.98 336L995.98 336Q995.98 337.04 995.50 337.04L995.50 337.04L992.86 337.04Q991.98 337.04 991.98 337.76L991.98 337.76Q991.98 338.08 992.62 339.84Q993.26 341.60 994.34 344.32Q995.42 347.04 996.62 350.24Q997.82 353.44 999.02 356.64Q1000.22 359.84 1001.10 362.48L1001.10 362.48Q1002.78 356.80 1004.38 352.36Q1005.98 347.92 1007.02 344.80L1007.02 344.80Q1005.98 342.32 1004.94 340.16L1004.94 340.16Q1003.98 338.16 1003.18 337.64Q1002.38 337.12 1000.70 337.12L1000.70 337.12Q1000.22 337.12 1000.22 336.16L1000.22 336.16Q1000.22 335.76 1000.34 335.36Q1000.46 334.96 1000.70 334.96L1000.70 334.96Q1002.94 334.96 1004.54 335.04Q1006.14 335.12 1008.30 335.12L1008.30 335.12Q1009.82 335.12 1012.02 335.04Q1014.22 334.96 1016.94 334.96L1016.94 334.96Q1017.26 334.96 1017.34 335.28Q1017.42 335.60 1017.42 336L1017.42 336Q1017.42 337.04 1016.94 337.04L1016.94 337.04L1013.10 337.04Q1012.22 337.04 1012.22 337.76L1012.22 337.76Q1012.22 338.08 1013.10 340.72Q1013.98 343.36 1015.30 347.16Q1016.62 350.96 1018.02 355.04Q1019.42 359.12 1020.54 362.48L1020.54 362.48Q1023.34 353.12 1025.66 347.08Q1027.98 341.04 1027.98 338.72L1027.98 338.72Q1027.98 337.76 1027.70 337.44Q1027.42 337.12 1027.02 337.12L1027.02 337.12L1023.74 337.12Q1023.18 337.12 1023.18 336.24L1023.18 336.24Q1023.18 335.84 1023.30 335.40Q1023.42 334.96 1023.58 334.96L1023.58 334.96Q1025.58 334.96 1026.74 335Q1027.90 335.04 1028.82 335.08Q1029.74 335.12 1030.94 335.12L1030.94 335.12Q1032.38 335.12 1033.58 335.04Q1034.78 334.96 1036.78 334.96L1036.78 334.96Q1037.10 334.96 1037.22 335.28Q1037.34 335.60 1037.34 336L1037.34 336Q1037.34 337.04 1036.78 337.04L1036.78 337.04ZM1074.86 344.08L1074.86 344.08Q1074.86 346.48 1074.66 349.48Q1074.46 352.48 1074.26 355.32Q1074.06 358.16 1074.06 360.16L1074.06 360.16Q1074.06 363.28 1075.02 364.40Q1075.98 365.52 1077.58 365.52L1077.58 365.52Q1079.42 365.52 1080.02 364.68Q1080.62 363.84 1081.18 363.84L1081.18 363.84Q1081.98 363.84 1081.98 364.64L1081.98 364.64Q1081.98 365.92 1080.90 367.40Q1079.82 368.88 1078.14 369.88Q1076.46 370.88 1074.54 370.88L1074.54 370.88Q1071.34 370.88 1069.90 368.32Q1068.46 365.76 1068.54 362L1068.54 362L1068.30 362Q1066.94 365.84 1063.50 368.44Q1060.06 371.04 1055.66 371.04L1055.66 371.04Q1052.46 371.04 1050.46 369.52Q1048.46 368 1048.46 365.04L1048.46 365.04Q1048.46 360.32 1053.78 356.40Q1059.10 352.48 1068.14 349.76L1068.14 349.76Q1068.22 348.72 1068.26 347.88Q1068.30 347.04 1068.30 346.56L1068.30 346.56Q1068.30 342.56 1066.78 339.60Q1065.26 336.64 1061.50 336.64L1061.50 336.64Q1058.62 336.64 1056.50 338.40Q1054.38 340.16 1054.38 343.92L1054.38 343.92Q1054.38 344.32 1054.38 344.76Q1054.38 345.20 1054.46 345.68L1054.46 345.68Q1054.14 346.08 1053.54 346.28Q1052.94 346.48 1052.30 346.48L1052.30 346.48Q1050.94 346.48 1049.62 345.60Q1048.30 344.72 1048.30 342.72L1048.30 342.72Q1048.30 340.16 1050.54 338.20Q1052.78 336.24 1056.06 335.12Q1059.34 334 1062.46 334L1062.46 334Q1068.14 334 1071.50 336.28Q1074.86 338.56 1074.86 344.08ZM1059.42 366.64L1059.42 366.64Q1062.46 366.64 1065.14 362.88Q1067.82 359.12 1068.14 352.08L1068.14 352.08Q1063.34 353.84 1060.70 355.60Q1058.06 357.36 1056.98 359.16Q1055.90 360.96 1055.90 362.88L1055.90 362.88Q1055.90 364.56 1056.74 365.60Q1057.58 366.64 1059.42 366.64ZM1105.90 339.92L1106.06 339.92Q1107.02 338.88 1108.78 337.52Q1110.54 336.16 1112.78 335.08Q1115.02 334 1117.26 334L1117.26 334Q1119.34 334 1120.34 335Q1121.34 336 1121.34 337.36L1121.34 337.36Q1121.34 338.64 1120.42 340Q1119.50 341.36 1117.74 342.16L1117.74 342.16Q1116.38 340.96 1114.90 340.24Q1113.42 339.52 1111.98 339.52L1111.98 339.52Q1110.14 339.52 1108.62 340.44Q1107.10 341.36 1106.14 342.64L1106.14 342.64L1106.14 360.56Q1106.14 363.60 1106.38 365.12Q1106.62 366.64 1107.02 367.12Q1107.42 367.60 1107.82 367.60L1107.82 367.60L1111.74 367.60Q1112.06 367.60 1112.22 368.08Q1112.38 368.56 1112.38 368.96L1112.38 368.96Q1112.38 369.28 1112.26 369.64Q1112.14 370 1111.90 370L1111.90 370Q1109.74 370 1108.42 369.96Q1107.10 369.92 1105.98 369.92Q1104.86 369.92 1103.18 369.92L1103.18 369.92Q1099.74 369.92 1097.98 370.04Q1096.22 370.16 1093.90 370.16L1093.90 370.16Q1093.66 370.16 1093.50 369.72Q1093.34 369.28 1093.34 368.96L1093.34 368.96Q1093.34 368.56 1093.46 368.16Q1093.58 367.76 1093.74 367.76L1093.74 367.76L1098.38 367.76Q1099.34 367.76 1099.34 366.40L1099.34 366.40L1099.34 347.60Q1099.34 344.16 1099.02 342.52Q1098.70 340.88 1098.18 340.36Q1097.66 339.84 1097.10 339.84L1097.10 339.84L1095.50 339.84Q1095.26 339.84 1095.06 339.40Q1094.86 338.96 1094.86 338.56L1094.86 338.56Q1094.86 338.32 1094.94 337.88Q1095.02 337.44 1095.34 337.44L1095.34 337.44Q1097.18 337.44 1098.78 336.60Q1100.38 335.76 1101.62 334.60Q1102.86 333.44 1103.74 332.60Q1104.62 331.76 1104.94 331.76L1104.94 331.76Q1106.06 331.76 1106.06 332.72L1106.06 332.72Q1106.06 334.96 1105.98 336.44Q1105.90 337.92 1105.90 339.92L1105.90 339.92ZM1160.78 350L1160.78 350Q1156.62 350.32 1150.78 350.24Q1144.94 350.16 1137.26 350.64L1137.26 350.64Q1137.26 354.40 1138.62 357Q1139.98 359.60 1142.14 361.20Q1144.30 362.80 1146.82 363.52Q1149.34 364.24 1151.66 364.24L1151.66 364.24Q1154.94 364.24 1156.98 363.60Q1159.02 362.96 1160.18 362.16Q1161.34 361.36 1161.98 360.72Q1162.62 360.08 1163.18 360.08L1163.18 360.08Q1164.06 360.08 1164.06 361.04L1164.06 361.04Q1164.06 361.52 1163.30 363.12Q1162.54 364.72 1160.90 366.56Q1159.26 368.40 1156.46 369.72Q1153.66 371.04 1149.58 371.04L1149.58 371.04Q1144.78 371.04 1141.02 368.52Q1137.26 366 1135.10 362Q1132.94 358 1132.94 353.60L1132.94 353.60Q1132.94 349.04 1134.58 345.40Q1136.22 341.76 1138.90 339.24Q1141.58 336.72 1144.78 335.40Q1147.98 334.08 1151.18 334.08L1151.18 334.08Q1154.62 334.08 1157.38 335.76Q1160.14 337.44 1161.82 340.44Q1163.50 343.44 1163.50 347.60L1163.50 347.60Q1163.50 348.88 1162.94 349.36Q1162.38 349.84 1160.78 350ZM1149.02 338.40L1149.02 338.40Q1146.62 338.40 1144.18 339.48Q1141.74 340.56 1139.94 342.72Q1138.14 344.88 1137.50 348.16L1137.50 348.16Q1140.30 347.84 1143.50 347.60Q1146.70 347.36 1149.58 347.12Q1152.46 346.88 1154.06 346.64L1154.06 346.64Q1155.50 346.48 1156.10 346.16Q1156.70 345.84 1156.70 345.12L1156.70 345.12Q1156.70 342.40 1154.50 340.40Q1152.30 338.40 1149.02 338.40ZM1219.18 346.24L1219.18 360.56Q1219.18 363.60 1219.42 365.12Q1219.66 366.64 1220.06 367.12Q1220.46 367.60 1220.86 367.60L1220.86 367.60L1224.78 367.60Q1225.10 367.60 1225.26 368.08Q1225.42 368.56 1225.42 368.96L1225.42 368.96Q1225.42 369.28 1225.30 369.64Q1225.18 370 1224.94 370L1224.94 370Q1222.78 370 1221.46 369.96Q1220.14 369.92 1219.02 369.92Q1217.90 369.92 1216.22 369.92L1216.22 369.92Q1212.78 369.92 1211.02 370.04Q1209.26 370.16 1206.94 370.16L1206.94 370.16Q1206.70 370.16 1206.54 369.72Q1206.38 369.28 1206.38 368.96L1206.38 368.96Q1206.38 368.56 1206.50 368.16Q1206.62 367.76 1206.78 367.76L1206.78 367.76L1211.42 367.76Q1212.38 367.76 1212.38 366.40L1212.38 366.40L1212.38 347.60Q1212.38 344.16 1212.06 342.52Q1211.74 340.88 1211.22 340.36Q1210.70 339.84 1210.14 339.84L1210.14 339.84L1208.54 339.84Q1208.30 339.84 1208.10 339.40Q1207.90 338.96 1207.90 338.56L1207.90 338.56Q1207.90 338.32 1207.98 337.88Q1208.06 337.44 1208.38 337.44L1208.38 337.44Q1210.30 337.44 1211.90 336.60Q1213.50 335.76 1214.78 334.60Q1216.06 333.44 1216.94 332.60Q1217.82 331.76 1218.30 331.76L1218.30 331.76Q1219.50 331.76 1219.50 332.72L1219.50 332.72Q1219.50 333.84 1219.46 334.76Q1219.42 335.68 1219.34 337Q1219.26 338.32 1219.22 340.48Q1219.18 342.64 1219.18 346.24L1219.18 346.24ZM1215.82 325.60L1215.82 325.60Q1214.06 325.60 1212.90 324.36Q1211.74 323.12 1211.74 321.36L1211.74 321.36Q1211.74 319.68 1212.98 318.56Q1214.22 317.44 1215.82 317.44L1215.82 317.44Q1217.42 317.44 1218.66 318.60Q1219.90 319.76 1219.90 321.36L1219.90 321.36Q1219.90 323.12 1218.74 324.36Q1217.58 325.60 1215.82 325.60ZM1284.22 343.52L1284.22 360.32Q1284.22 363.36 1284.50 364.88Q1284.78 366.40 1285.18 366.88Q1285.58 367.36 1285.90 367.36L1285.90 367.36L1290.54 367.36Q1290.94 367.36 1291.14 367.84Q1291.34 368.32 1291.34 368.88L1291.34 368.88Q1291.34 370 1290.54 370L1290.54 370L1287.10 370Q1286.30 370 1285.42 369.96Q1284.54 369.92 1283.66 369.92L1283.66 369.92L1280.46 369.92Q1277.10 369.92 1275.10 369.96Q1273.10 370 1271.82 370.08Q1270.54 370.16 1269.26 370.16L1269.26 370.16Q1268.94 370.16 1268.78 369.76Q1268.62 369.36 1268.62 368.88L1268.62 368.88Q1268.62 368.32 1268.78 367.88Q1268.94 367.44 1269.26 367.44L1269.26 367.44L1272.70 367.44Q1274.78 367.44 1275.38 366.64Q1275.98 365.84 1275.98 363.76L1275.98 363.76L1275.98 325.84Q1275.98 322.72 1275.70 321.24Q1275.42 319.76 1275.06 319.28Q1274.70 318.80 1274.30 318.80L1274.30 318.80L1269.66 318.80Q1269.02 318.80 1269.02 317.28L1269.02 317.28Q1269.02 316.88 1269.14 316.52Q1269.26 316.16 1269.66 316.16L1269.66 316.16Q1272.94 316.16 1275.46 316.24Q1277.98 316.32 1279.74 316.32L1279.74 316.32L1288.94 316.32Q1296.46 316.32 1301.10 318.32Q1305.74 320.32 1307.94 323.56Q1310.14 326.80 1310.14 330.40L1310.14 330.40Q1310.14 334.08 1308.02 337.52Q1305.90 340.96 1302.02 343.20Q1298.14 345.44 1292.78 345.44L1292.78 345.44Q1290.86 345.44 1288.70 345Q1286.54 344.56 1284.22 343.52L1284.22 343.52ZM1301.50 331.04L1301.50 331.04Q1301.50 328.16 1299.98 325.52Q1298.46 322.88 1295.26 321.20Q1292.06 319.52 1287.10 319.52L1287.10 319.52Q1285.58 319.52 1284.90 320.28Q1284.22 321.04 1284.22 323.20L1284.22 323.20L1284.22 340.96Q1286.38 341.44 1288.46 341.44L1288.46 341.44Q1292.78 341.44 1295.66 339.96Q1298.54 338.48 1300.02 336.12Q1301.50 333.76 1301.50 331.04ZM1335.66 339.92L1335.82 339.92Q1336.78 338.88 1338.54 337.52Q1340.30 336.16 1342.54 335.08Q1344.78 334 1347.02 334L1347.02 334Q1349.10 334 1350.10 335Q1351.10 336 1351.10 337.36L1351.10 337.36Q1351.10 338.64 1350.18 340Q1349.26 341.36 1347.50 342.16L1347.50 342.16Q1346.14 340.96 1344.66 340.24Q1343.18 339.52 1341.74 339.52L1341.74 339.52Q1339.90 339.52 1338.38 340.44Q1336.86 341.36 1335.90 342.64L1335.90 342.64L1335.90 360.56Q1335.90 363.60 1336.14 365.12Q1336.38 366.64 1336.78 367.12Q1337.18 367.60 1337.58 367.60L1337.58 367.60L1341.50 367.60Q1341.82 367.60 1341.98 368.08Q1342.14 368.56 1342.14 368.96L1342.14 368.96Q1342.14 369.28 1342.02 369.64Q1341.90 370 1341.66 370L1341.66 370Q1339.50 370 1338.18 369.96Q1336.86 369.92 1335.74 369.92Q1334.62 369.92 1332.94 369.92L1332.94 369.92Q1329.50 369.92 1327.74 370.04Q1325.98 370.16 1323.66 370.16L1323.66 370.16Q1323.42 370.16 1323.26 369.72Q1323.10 369.28 1323.10 368.96L1323.10 368.96Q1323.10 368.56 1323.22 368.16Q1323.34 367.76 1323.50 367.76L1323.50 367.76L1328.14 367.76Q1329.10 367.76 1329.10 366.40L1329.10 366.40L1329.10 347.60Q1329.10 344.16 1328.78 342.52Q1328.46 340.88 1327.94 340.36Q1327.42 339.84 1326.86 339.84L1326.86 339.84L1325.26 339.84Q1325.02 339.84 1324.82 339.40Q1324.62 338.96 1324.62 338.56L1324.62 338.56Q1324.62 338.32 1324.70 337.88Q1324.78 337.44 1325.10 337.44L1325.10 337.44Q1326.94 337.44 1328.54 336.60Q1330.14 335.76 1331.38 334.60Q1332.62 333.44 1333.50 332.60Q1334.38 331.76 1334.70 331.76L1334.70 331.76Q1335.82 331.76 1335.82 332.72L1335.82 332.72Q1335.82 334.96 1335.74 336.44Q1335.66 337.92 1335.66 339.92L1335.66 339.92ZM1381.50 334L1381.50 334Q1385.26 334 1388.70 335.40Q1392.14 336.80 1394.86 339.32Q1397.58 341.84 1399.18 345.20Q1400.78 348.56 1400.78 352.40L1400.78 352.40Q1400.78 357.76 1398.14 362Q1395.50 366.24 1391.14 368.64Q1386.78 371.04 1381.50 371.04L1381.50 371.04Q1376.30 371.04 1371.94 368.48Q1367.58 365.92 1364.94 361.64Q1362.30 357.36 1362.30 352.08L1362.30 352.08Q1362.30 348.24 1363.90 344.96Q1365.50 341.68 1368.22 339.20Q1370.94 336.72 1374.38 335.36Q1377.82 334 1381.50 334ZM1381.18 336.88L1381.18 336.88Q1378.22 336.88 1376.14 338.28Q1374.06 339.68 1372.78 342Q1371.50 344.32 1370.90 347.04Q1370.30 349.76 1370.30 352.40L1370.30 352.40Q1370.30 356.16 1371.42 359.80Q1372.54 363.44 1375.10 365.80Q1377.66 368.16 1381.90 368.16L1381.90 368.16Q1385.90 368.16 1388.26 365.84Q1390.62 363.52 1391.70 359.96Q1392.78 356.40 1392.78 352.88L1392.78 352.88Q1392.78 349.04 1391.70 345.36Q1390.62 341.68 1388.06 339.28Q1385.50 336.88 1381.18 336.88ZM1428.70 346.24L1428.70 366.64Q1428.70 369.20 1428.26 372.56Q1427.82 375.92 1426.70 379.40Q1425.58 382.88 1423.58 385.84Q1421.58 388.80 1418.50 390.64Q1415.42 392.48 1411.02 392.48L1411.02 392.48Q1407.66 392.48 1405.94 391.08Q1404.22 389.68 1404.22 388.08L1404.22 388.08Q1404.22 386.96 1405.10 385.88Q1405.98 384.80 1407.74 384.24L1407.74 384.24Q1408.70 385.76 1410.30 387.32Q1411.90 388.88 1414.38 388.88L1414.38 388.88Q1417.18 388.88 1418.70 387.04Q1420.22 385.20 1420.90 382.40Q1421.58 379.60 1421.74 376.56Q1421.90 373.52 1421.90 371.20L1421.90 371.20L1421.90 347.60Q1421.90 344.16 1421.58 342.52Q1421.26 340.88 1420.74 340.36Q1420.22 339.84 1419.66 339.84L1419.66 339.84L1418.06 339.84Q1417.82 339.84 1417.62 339.40Q1417.42 338.96 1417.42 338.56L1417.42 338.56Q1417.42 338.32 1417.50 337.88Q1417.58 337.44 1417.90 337.44L1417.90 337.44Q1419.82 337.44 1421.42 336.60Q1423.02 335.76 1424.30 334.60Q1425.58 333.44 1426.46 332.60Q1427.34 331.76 1427.82 331.76L1427.82 331.76Q1429.02 331.76 1429.02 332.72L1429.02 332.72Q1429.02 333.84 1428.98 334.76Q1428.94 335.68 1428.86 337Q1428.78 338.32 1428.74 340.48Q1428.70 342.64 1428.70 346.24L1428.70 346.24ZM1424.30 325.60L1424.30 325.60Q1422.54 325.60 1421.38 324.36Q1420.22 323.12 1420.22 321.36L1420.22 321.36Q1420.22 319.68 1421.46 318.56Q1422.70 317.44 1424.30 317.44L1424.30 317.44Q1425.90 317.44 1427.14 318.60Q1428.38 319.76 1428.38 321.36L1428.38 321.36Q1428.38 323.12 1427.22 324.36Q1426.06 325.60 1424.30 325.60ZM1474.38 350L1474.38 350Q1470.22 350.32 1464.38 350.24Q1458.54 350.16 1450.86 350.64L1450.86 350.64Q1450.86 354.40 1452.22 357Q1453.58 359.60 1455.74 361.20Q1457.90 362.80 1460.42 363.52Q1462.94 364.24 1465.26 364.24L1465.26 364.24Q1468.54 364.24 1470.58 363.60Q1472.62 362.96 1473.78 362.16Q1474.94 361.36 1475.58 360.72Q1476.22 360.08 1476.78 360.08L1476.78 360.08Q1477.66 360.08 1477.66 361.04L1477.66 361.04Q1477.66 361.52 1476.90 363.12Q1476.14 364.72 1474.50 366.56Q1472.86 368.40 1470.06 369.72Q1467.26 371.04 1463.18 371.04L1463.18 371.04Q1458.38 371.04 1454.62 368.52Q1450.86 366 1448.70 362Q1446.54 358 1446.54 353.60L1446.54 353.60Q1446.54 349.04 1448.18 345.40Q1449.82 341.76 1452.50 339.24Q1455.18 336.72 1458.38 335.40Q1461.58 334.08 1464.78 334.08L1464.78 334.08Q1468.22 334.08 1470.98 335.76Q1473.74 337.44 1475.42 340.44Q1477.10 343.44 1477.10 347.60L1477.10 347.60Q1477.10 348.88 1476.54 349.36Q1475.98 349.84 1474.38 350ZM1462.62 338.40L1462.62 338.40Q1460.22 338.40 1457.78 339.48Q1455.34 340.56 1453.54 342.72Q1451.74 344.88 1451.10 348.16L1451.10 348.16Q1453.90 347.84 1457.10 347.60Q1460.30 347.36 1463.18 347.12Q1466.06 346.88 1467.66 346.64L1467.66 346.64Q1469.10 346.48 1469.70 346.16Q1470.30 345.84 1470.30 345.12L1470.30 345.12Q1470.30 342.40 1468.10 340.40Q1465.90 338.40 1462.62 338.40ZM1512.86 334L1512.86 334Q1516.78 334 1519.18 335.56Q1521.58 337.12 1521.58 339.12L1521.58 339.12Q1521.58 340.16 1520.90 341.16Q1520.22 342.16 1518.54 342.88L1518.54 342.88Q1515.90 340.32 1513.54 339.12Q1511.18 337.92 1508.46 337.92L1508.46 337.92Q1504.54 337.92 1501.54 341.20Q1498.54 344.48 1498.54 350.72L1498.54 350.72Q1498.54 355.84 1500.46 359.04Q1502.38 362.24 1505.34 363.76Q1508.30 365.28 1511.34 365.28L1511.34 365.28Q1514.86 365.28 1517.02 364.40Q1519.18 363.52 1520.42 362.68Q1521.66 361.84 1522.14 361.84L1522.14 361.84Q1523.10 361.84 1523.10 362.88L1523.10 362.88Q1523.10 363.44 1522.06 364.76Q1521.02 366.08 1519.10 367.52Q1517.18 368.96 1514.58 370Q1511.98 371.04 1508.86 371.04L1508.86 371.04Q1503.34 371.04 1499.54 368.68Q1495.74 366.32 1493.78 362.64Q1491.82 358.96 1491.82 354.96L1491.82 354.96Q1491.82 350.48 1493.58 346.68Q1495.34 342.88 1498.30 340.04Q1501.26 337.20 1505.02 335.60Q1508.78 334 1512.86 334ZM1540.46 360.40L1540.46 338.08L1536.38 338.08Q1536.06 338.08 1535.82 337.64Q1535.58 337.20 1535.58 336.88L1535.58 336.88Q1535.58 336.56 1535.74 336.16Q1535.90 335.76 1536.22 335.68L1536.22 335.68Q1540.22 334.88 1542.38 331.80Q1544.54 328.72 1545.90 324.80L1545.90 324.80Q1546.06 324.40 1546.38 324.32Q1546.70 324.24 1546.94 324.24L1546.94 324.24Q1547.74 324.24 1547.74 325.28L1547.74 325.28Q1547.74 327.04 1547.50 329.16Q1547.26 331.28 1547.26 335.04L1547.26 335.04L1557.18 335.04Q1557.58 335.04 1557.78 335.60Q1557.98 336.16 1557.98 336.72L1557.98 336.72Q1557.98 337.12 1557.86 337.60Q1557.74 338.08 1557.34 338.08L1557.34 338.08L1547.26 338.08L1547.26 358.64Q1547.26 362.48 1548.58 364.36Q1549.90 366.24 1553.18 366.24L1553.18 366.24Q1554.94 366.24 1555.94 365.44Q1556.94 364.64 1557.54 363.88Q1558.14 363.12 1558.54 363.12L1558.54 363.12Q1559.34 363.12 1559.34 363.84L1559.34 363.84Q1559.34 365.04 1558.18 366.80Q1557.02 368.56 1554.86 369.92Q1552.70 371.28 1549.66 371.28L1549.66 371.28Q1545.42 371.28 1542.94 368.52Q1540.46 365.76 1540.46 360.40L1540.46 360.40ZM1599.26 350L1599.26 350Q1595.10 350.32 1589.26 350.24Q1583.42 350.16 1575.74 350.64L1575.74 350.64Q1575.74 354.40 1577.10 357Q1578.46 359.60 1580.62 361.20Q1582.78 362.80 1585.30 363.52Q1587.82 364.24 1590.14 364.24L1590.14 364.24Q1593.42 364.24 1595.46 363.60Q1597.50 362.96 1598.66 362.16Q1599.82 361.36 1600.46 360.72Q1601.10 360.08 1601.66 360.08L1601.66 360.08Q1602.54 360.08 1602.54 361.04L1602.54 361.04Q1602.54 361.52 1601.78 363.12Q1601.02 364.72 1599.38 366.56Q1597.74 368.40 1594.94 369.72Q1592.14 371.04 1588.06 371.04L1588.06 371.04Q1583.26 371.04 1579.50 368.52Q1575.74 366 1573.58 362Q1571.42 358 1571.42 353.60L1571.42 353.60Q1571.42 349.04 1573.06 345.40Q1574.70 341.76 1577.38 339.24Q1580.06 336.72 1583.26 335.40Q1586.46 334.08 1589.66 334.08L1589.66 334.08Q1593.10 334.08 1595.86 335.76Q1598.62 337.44 1600.30 340.44Q1601.98 343.44 1601.98 347.60L1601.98 347.60Q1601.98 348.88 1601.42 349.36Q1600.86 349.84 1599.26 350ZM1587.50 338.40L1587.50 338.40Q1585.10 338.40 1582.66 339.48Q1580.22 340.56 1578.42 342.72Q1576.62 344.88 1575.98 348.16L1575.98 348.16Q1578.78 347.84 1581.98 347.60Q1585.18 347.36 1588.06 347.12Q1590.94 346.88 1592.54 346.64L1592.54 346.64Q1593.98 346.48 1594.58 346.16Q1595.18 345.84 1595.18 345.12L1595.18 345.12Q1595.18 342.40 1592.98 340.40Q1590.78 338.40 1587.50 338.40ZM1636.54 334.80L1636.54 334.80Q1636.14 333.44 1636.38 333.20Q1636.62 332.96 1637.10 332.96L1637.10 332.96Q1637.74 332.96 1638.02 333.12Q1638.30 333.28 1638.54 334.16L1638.54 334.16Q1638.94 335.44 1639.06 336.44Q1639.18 337.44 1639.42 338.40L1639.42 338.40Q1639.66 339.44 1639.86 340.28Q1640.06 341.12 1640.38 342.88L1640.38 342.88Q1640.54 343.60 1639.34 343.60L1639.34 343.60Q1639.02 343.60 1638.70 343.48Q1638.38 343.36 1638.22 342.96L1638.22 342.96Q1637.18 340.08 1635.26 338.32Q1633.34 336.56 1630.62 336.56L1630.62 336.56Q1628.06 336.56 1626.54 338.08Q1625.02 339.60 1625.02 341.92L1625.02 341.92Q1625.02 344.32 1626.70 345.84Q1628.38 347.36 1630.82 348.60Q1633.26 349.84 1635.70 351.32Q1638.14 352.80 1639.82 355.04Q1641.50 357.28 1641.50 360.96L1641.50 360.96Q1641.50 364.32 1639.54 366.56Q1637.58 368.80 1634.50 369.92Q1631.42 371.04 1628.14 371.04L1628.14 371.04Q1623.98 371.04 1622.46 370.36Q1620.94 369.68 1620.94 369.68L1620.94 369.68Q1620.94 370.56 1620.82 370.80Q1620.70 371.04 1619.98 371.20L1619.98 371.20Q1619.66 371.28 1619.34 371.20Q1619.02 371.12 1618.94 370.56L1618.94 370.56Q1618.62 367.76 1618.18 365.48Q1617.74 363.20 1617.34 359.92L1617.34 359.92Q1617.26 359.28 1618.26 359.04Q1619.26 358.80 1619.42 359.44L1619.42 359.44Q1620.54 363.04 1622.82 365.76Q1625.10 368.48 1629.02 368.48L1629.02 368.48Q1631.42 368.48 1633.42 367.08Q1635.42 365.68 1635.42 362.88L1635.42 362.88Q1635.42 360.24 1633.78 358.52Q1632.14 356.80 1629.70 355.48Q1627.26 354.16 1624.82 352.76Q1622.38 351.36 1620.74 349.32Q1619.10 347.28 1619.10 344.08L1619.10 344.08Q1619.10 340.80 1620.78 338.56Q1622.46 336.32 1625.22 335.16Q1627.98 334 1631.34 334L1631.34 334Q1632.78 334 1634.14 334.20Q1635.50 334.40 1636.54 334.80Z" fill="#ffffff" stroke="#ffffff" stroke-width="1" stroke-linejoin="round"/>
</svg>
