<svg xmlns="http://www.w3.org/2000/svg" viewBox="0 0 512 512" aria-hidden="true">
  <defs>
    <radialGradient id="fogueró" cx="50%" cy="35%" r="70%">
      <stop offset="0%" stop-color="#9B1B30" stop-opacity="0.35"/>
      <stop offset="100%" stop-color="#0A0A0A" stop-opacity="1"/>
    </radialGradient>
  </defs>
  <rect width="512" height="512" rx="96" ry="96" fill="#0A0A0A"/>
  <rect width="512" height="512" rx="96" ry="96" fill="url(#fogueró)"/>
  <g transform="translate(55.83 10.24) scale(1.4247)" fill="#F5F5F5">
    <path d="m9.97 2.75c-0.02 0.96 1.85 5.35 4.15 9.75 2.3 4.4 5.35 9.62 6.78 11.61 1.43 1.98 5.49 5.8 9.01 8.5 4.13 3.15 7.41 6.67 9.2 9.89 1.95 3.52 3.59 9.3 5.54 19.5 2.26 11.9 2.76 17.35 2.8 30.39 0.04 13.73 0.28 16.03 1.73 17 1.28 0.84 2.9 0.69 6.75-0.64 4.18-1.44 5.91-1.56 9.82-0.68 2.61 0.59 8.32 2.95 12.68 5.25 4.39 2.31 10.31 6.52 13.25 9.43 2.93 2.89 6.18 6.94 7.23 9 1.05 2.06 3.47 8.93 5.39 15.25 1.91 6.32 3.75 13.86 4.09 16.75 0.56 4.79 0.43 5.25-1.39 5.25-1.1 0-2.9-1.13-4-2.5-1.1-1.38-2.22-2.5-2.5-2.5-0.28 0-0.48 0.79-0.46 1.75 0.02 0.96 1.6 3.21 3.5 5 1.9 1.79 3.24 3.7 2.96 4.25-0.28 0.55-1.33 1-2.33 1-1.01 0-2.14 0.22-2.5 0.5-0.37 0.27 1.21 1.96 3.51 3.75 2.3 1.79 4.22 3.7 4.25 4.25 0.04 0.55-2.18 1.12-4.93 1.26l-5 0.26 4 4.05c-3.84-0.06-4.5 0.51-4.5 1.93 0 1.1-0.34 2.17-0.75 2.38-0.41 0.21-3.22-0.44-6.25-1.43-3.03-1-6.85-1.81-8.5-1.8l-3 0.01c6.27 2.68 6.69 3.18 5.5 3.9-0.83 0.5-2.85 0.93-4.5 0.96-2.16 0.03-2.58 0.28-1.5 0.89 0.83 0.46 3.64 1.12 6.25 1.47 2.61 0.34 4.76 0.96 4.78 1.37 0.01 0.41-1.11 1.31-2.5 2-1.39 0.69-3.2 1.25-4.03 1.25-0.83 0-1.5 0.45-1.5 1 0 0.55 0.45 1 1 1 0.55 0 1 0.45 1 1 0 0.55-0.67 1-1.5 1-1.06 0-1.33 0.66-0.92 2.25 0.32 1.24 0.8 3.15 1.07 4.25 0.43 1.79 0.03 1.97-3.83 1.75-3.99-0.24-4.13-0.17-1.82 0.92 2.36 1.12 2.2 1.22-2.66 1.76-2.84 0.31-5.41 0.79-5.7 1.07-0.3 0.28 1.69 0.84 4.41 1.25 2.8 0.42 5.28 1.41 5.7 2.26 0.41 0.83 0.4 1.84-0.02 2.25-0.42 0.41-1.32 0.17-2-0.53-0.68-0.69-1.57-1.26-1.98-1.25-0.41 0.01-0.75 0.92-0.75 2.02q0 2-2.5 2.5c-1.38 0.28-4.09 1.96-6.03 3.75-1.95 1.79-3.3 3.36-3 3.5 0.29 0.14 2.22-0.87 4.28-2.25 2.06-1.37 5.52-2.84 7.68-3.25 3.26-0.62 3.85-0.49 3.43 0.75-0.28 0.82-3.06 3.19-6.18 5.25-3.13 2.06-6.13 4.65-6.68 5.75-0.55 1.1-0.66 2.02-0.25 2.04 0.41 0.03 1.42-0.67 2.25-1.54 0.83-0.87 2.29-1.57 3.25-1.54 1.44 0.03 1.75 0.98 1.77 5.29 0 2.89 0.4 5.93 0.88 6.75 0.48 0.82 1.38 1.16 1.99 0.75 0.67-0.46 1.35 0.13 1.73 1.5 0.34 1.24 0.34 2.81 0 3.5-0.34 0.69-1.29 1.25-2.12 1.25-0.95 0-1.32 0.64-1 1.75 0.42 1.5-0.49 1.86-6.25 2.51-3.71 0.41-7.2 1.23-7.75 1.81-0.7 0.74 0.58 0.81 4.27 0.24 3.98-0.61 5.26-0.51 5.25 0.44-0.01 0.69-1.03 1.24-2.27 1.23-1.24-0.01-3.15 0.65-4.25 1.47-1.97 1.47-1.97 1.49 0.25 1.52 1.24 0.02 2.03 0.48 1.75 1.03-0.28 0.55-2.76 1.34-5.52 1.75-2.75 0.41-5.01 0.98-5.02 1.25 0 0.27 1.47 0.84 3.27 1.26 1.8 0.42 4.39 0.79 5.77 0.83 1.88 0.05 1.34 0.48-2.18 1.74-2.57 0.92-5.01 2.01-5.42 2.42-0.4 0.41 0.13 0.74 1.18 0.73 1.06-0.01 3.38 0.44 5.17 1 1.79 0.56 3.25 1.47 3.25 2.02 0 0.55-1.24 1.65-2.75 2.44-1.51 0.8-4.77 3.23-7.25 5.4-2.48 2.18-4.16 4.23-3.75 4.56 0.41 0.33 2.1-0.08 3.75-0.9 1.65-0.82 3.45-1.5 4-1.5 0.55 0 1 0.68 1 1.5 0 0.82-1.58 3.19-3.51 5.25-1.93 2.06-3.74 4.88-4.02 6.25-0.29 1.38-0.4 2.62-0.24 2.77 0.15 0.14 1.51-1.55 3.02-3.75 1.51-2.21 3-3.91 3.31-3.77 0.31 0.14 0.31 1.6 0.01 3.25-0.3 1.65-2.35 5.59-4.56 8.75-2.21 3.16-3.9 5.98-3.76 6.26 0.14 0.27 1.15-0.42 2.25-1.54 1.1-1.12 2.34-2.02 2.75-2 0.41 0.02-0.08 1.27-1.09 2.78-1.01 1.51-2.13 3.31-2.5 4-0.49 0.93 0.04 1.07 2.09 0.53l2.75-0.71c-4.65 6.56-5.64 8.79-5.19 9.2 0.44 0.4 1.11 0.26 1.5-0.3 0.38-0.57 2.04-2.05 3.69-3.29 1.65-1.24 3.34-2.23 3.75-2.21 0.41 0.01 0.55 1.04 0.3 2.28-0.24 1.24-0.73 3.15-1.07 4.25-0.37 1.18 1.05 0.14 3.44-2.5l4.07-4.5c0.12 9.41 0.38 10.42 0.97 9 0.46-1.1 2.29-3.35 4.07-5l3.23-3c-0.98 8.14-1.04 10.5-0.76 10.5 0.28 0 2.97-1.35 6-3 4.22-2.3 5.5-2.65 5.5-1.5 0 1.17 0.71 1.34 3.25 0.79 1.79-0.4 4.37-0.61 5.75-0.49 1.37 0.13 3.71 0.34 5.2 0.47 1.74 0.15 3.22-0.48 4.17-1.77 1.46-1.99 1.48-1.99 3.8 0.13 1.28 1.18 3.68 2.81 5.33 3.62 1.65 0.82 5.25 1.8 8 2.18 2.75 0.37 7.47 1.19 10.5 1.81 4.6 0.95 6.24 0.87 10-0.5 2.47-0.9 7.43-2.14 11-2.77 3.57-0.62 8.03-2.11 9.9-3.3 1.88-1.2 5.72-5.75 8.57-10.17 2.85-4.4 6.01-9.35 7.02-11l1.84-3c1.68 3.54 2.51 4.55 2.92 4.53 0.41-0.02 0.77 0.53 0.79 1.22 0.03 0.69-0.67 1.93-1.54 2.75-0.87 0.82-1.56 1.73-1.53 2 0.03 0.27 1.4 0.39 3.04 0.25l2.99-0.25c-0.02 11.48-0.01 11.49 1.74 9.09 1.64-2.24 2.19-2.36 8.26-1.78 6.5 0.62 6.5 0.62 4.5-1.38-2-2-2-2 1-1.95 1.65 0.02 5.36 0.71 8.25 1.53 3.17 0.9 5.25 1.09 5.25 0.49 0-0.55-0.9-1.45-2-2-1.1-0.55-2.45-1.9-3-3-0.86-1.72-0.54-2.18 2.25-3.31l3.25-1.31c-11.24-1.84-14.5-2.83-14.5-3.38 0-0.55 1.24-2.6 2.75-4.55l2.75-3.54c-7.22 0.07-8.54-0.26-7.95-0.84 0.52-0.52 2.75-1.08 4.95-1.25l4-0.32c-7.63-4.54-7.81-4.84-6-5.62 1.1-0.47 3.35-1.38 5-2.04l3-1.19c-8.26-1.69-10.53-2.69-10.52-3.4 0.01-0.69 2.16-3.05 4.77-5.24 2.61-2.2 4.3-3.99 3.75-3.97-0.55 0.01-1.9 0.69-3 1.51-1.1 0.82-2.56 1.48-3.25 1.47-0.69-0.01-1.25-0.58-1.25-1.27 0-0.69 1.12-3.39 2.5-6 1.37-2.61 2.21-5.09 1.86-5.5-0.35-0.41-0.8-0.3-1 0.25-0.2 0.55-1.27 2.46-2.36 4.25-1.1 1.79-2.45 3.25-3 3.25-0.55 0-1-1.12-1-2.5 0-1.37 0.71-4.19 1.58-6.25 0.87-2.06 2.89-5.21 4.5-7 1.61-1.79 2.7-3.7 2.42-4.25-0.28-0.55-1.18-1-2-1-0.82 0-1.28-0.45-1-1 0.28-0.55 3.21-1.79 6.53-2.75 3.31-0.96 6.01-2.09 6-2.5-0.02-0.41-0.71-0.75-1.53-0.75-0.82 0-3.64 0.91-6.25 2.01-2.61 1.11-4.86 1.79-5 1.5-0.14-0.28 1.55-2.76 3.75-5.51 2.2-2.75 4-5.45 4-6 0-0.55-1.46-0.1-3.25 1-1.79 1.09-3.81 1.99-4.5 2-0.75 0-1.05-0.8-0.75-2 0.35-1.42 0-2-1.21-2-1.61 0-1.61-0.11 0.03-1.75 0.96-0.96 3.19-2.28 4.96-2.92 2.64-0.97 2.82-1.19 0.97-1.25-1.24-0.05-3.6 0.6-5.25 1.42-2.67 1.33-3 1.33-3 0 0-0.85 2.39-2.59 5.5-4 3.03-1.37 5.51-2.84 5.51-3.25 0.01-0.41-2.13-0.42-4.75-0.03-2.62 0.4-5.83 1.08-7.14 1.5l-2.38 0.78 1.56-14c-4.85 5.52-5.42 5.76-6.27 4.5-0.55-0.82-1.01-2.06-1.01-2.75-0.01-0.69 1.63-2.04 3.64-3l3.67-1.75c-10.69-0.99-10.84-1.08-11.08-4.25-0.18-2.29-0.84-3.4-2.25-3.75-1.1-0.28-2.01-1.06-2.02-1.75-0.01-0.69 0.65-2.15 1.47-3.25 0.82-1.1 1.5-2.34 1.52-2.75 0.02-0.41-0.87-0.19-1.96 0.5-1.72 1.08-2.36 0.88-4.75-1.46-2.62-2.58-2.67-2.8-1.04-4.5 0.95-0.99 1.74-2.13 1.75-2.54 0.02-0.41-1.21-0.86-2.72-1-2.59-0.24-2.74-0.5-2.52-4.75 0.13-2.47 0.85-6.75 1.61-9.5 0.76-2.75 1.67-5.79 2.02-6.75 0.35-0.96 0.3-1.76-0.11-1.77-0.41 0-1.76 2.25-3 5-1.24 2.76-2.7 5.02-3.25 5.02-0.59 0-0.44-1.33 0.37-3.25 0.75-1.79 1.71-6.4 2.11-10.25 0.41-3.85 2.03-10.15 3.6-14 1.58-3.85 3.78-10.04 4.89-13.75 1.39-4.62 3.08-7.78 5.34-10 1.82-1.79 6.43-4.45 10.25-5.91 3.82-1.47 10.65-3.6 15.19-4.75 4.54-1.15 11.4-2.09 15.25-2.09 6.78 0 7.05-0.1 8.5-3 1.18-2.36 1.48-6.97 1.43-21.75-0.04-10.31 0.15-19.42 0.42-20.25 0.27-0.83 0.8-3.3 1.17-5.5 0.37-2.2 1.34-6.02 2.17-8.5 0.82-2.47 2.92-6.7 4.65-9.38 2.04-3.15 5.46-6.4 9.66-9.15 3.57-2.36 7.28-5.11 8.24-6.12 0.96-1.02 2.4-3.65 3.21-5.85 0.8-2.2 1.48-4.79 1.51-5.75 0.03-1.42-0.63-1.18-3.46 1.25-1.93 1.65-6.31 4.41-9.75 6.14-4.05 2.03-8.9 5.81-13.8 10.75-5.48 5.52-8.55 9.67-11.2 15.11-2.01 4.13-4.11 9.53-4.68 12-0.56 2.47-1.03 6.64-1.05 9.25-0.01 2.61 0.48 6.89 1.09 9.5 0.98 4.2 0.89 5.04-0.83 7.25-1.07 1.38-4.83 4.69-8.36 7.38-3.53 2.68-9.57 6.34-13.42 8.12-3.85 1.79-9.25 4.08-12 5.08-2.75 1.01-7.03 3.68-9.5 5.93-2.81 2.56-5.91 4.37-8.25 4.8-2.23 0.41-6.49 2.8-10.5 5.87-3.71 2.85-7.76 6.34-9 7.75-1.24 1.42-3.81 5.72-5.7 9.57-1.99 4.05-4.63 12.15-6.25 19.23-1.54 6.73-3.08 11.9-3.42 11.5-0.33-0.4-1.78-4.78-3.2-9.73-1.42-4.95-3.35-12.37-4.28-16.5-0.92-4.12-2.69-9.53-3.91-12-1.23-2.47-3.75-5.86-5.61-7.53-1.86-1.66-7.21-5.54-11.88-8.61-5.61-3.68-9.77-7.33-12.25-10.72-2.06-2.83-4.65-6.94-5.75-9.14-1.11-2.22-3.33-4.67-5-5.5-1.65-0.82-6.94-2.45-11.75-3.6-4.81-1.16-10.78-3.14-13.25-4.39-2.47-1.26-5.26-3.13-6.19-4.15-0.93-1.02-2.39-3.55-3.25-5.61-1.12-2.68-1.53-6.81-1.45-14.5 0.11-9.83-0.13-11.26-2.7-16.75-2.15-4.56-5.6-8.75-14.42-17.5-6.37-6.32-14.27-15.22-17.54-19.78-3.27-4.55-6.29-8.26-6.7-8.25-0.41 0.02-0.76 0.82-0.78 1.78z"/>
  </g>
</svg>
