<svg xmlns="http://www.w3.org/2000/svg" viewBox="0 0 373.249615 437.303884" fill="currentColor" aria-hidden="true">
  <g transform="translate(-4.069117 443.874454) scale(0.1 -0.1)">
    <path d="M439 4433 c-15 -4 -31 -33 -79 -148 -12 -27 -26 -59 -31 -70 -6 -12 -11 -27 -12 -35 -2 -8 -10 -30 -20 -49 -9 -19 -17 -42 -17 -51 0 -9 -3 -20 -7 -24 -4 -3 -8 -13 -9 -21 -4 -24 -35 -117 -55 -161 -10 -23 -21 -56 -24 -75 -3 -19 -10 -38 -16 -43 -5 -6 -9 -19 -9 -31 0 -12 -5 -26 -12 -33 -7 -7 -9 -12 -6 -12 4 0 -2 -25 -12 -55 -10 -30 -16 -55 -13 -55 3 0 0 -6 -6 -13 -6 -8 -12 -23 -14 -35 -2 -12 -6 -25 -10 -28 -4 -4 -7 -15 -7 -24 0 -9 -7 -31 -16 -49 -9 -18 -18 -49 -21 -70 -5 -37 -4 -39 33 -52 46 -15 116 -18 164 -7 19 4 51 10 70 14 19 3 44 8 55 11 11 3 38 7 60 9 22 1 52 7 68 13 15 6 27 8 27 5 0 -4 6 -2 13 4 6 5 31 12 55 16 24 3 48 8 53 12 37 22 692 22 728 0 6 -4 39 -10 73 -12 34 -2 67 -9 75 -15 7 -6 13 -8 13 -4 0 5 9 0 20 -10 11 -10 20 -15 20 -11 0 3 12 0 28 -8 15 -8 29 -14 32 -14 19 -1 58 -23 74 -41 16 -18 19 -36 18 -146 -1 -69 -4 -130 -8 -136 -4 -6 -9 -48 -11 -93 -2 -44 -8 -99 -13 -121 -9 -38 -17 -149 -25 -340 -4 -87 -8 -147 -21 -285 -3 -36 -7 -92 -9 -125 -6 -111 -16 -230 -22 -255 -3 -14 -7 -43 -9 -65 -2 -22 -6 -65 -9 -95 -3 -30 -7 -84 -11 -120 -3 -36 -7 -76 -10 -90 -2 -14 -7 -43 -10 -65 -3 -22 -7 -53 -10 -70 -3 -16 -7 -55 -10 -85 -3 -30 -8 -71 -11 -90 -7 -41 -11 -76 -16 -146 -3 -28 -6 -55 -9 -60 -3 -5 -6 -31 -7 -58 -2 -27 -5 -58 -7 -70 -6 -27 -12 -75 -19 -156 -3 -36 -8 -85 -11 -110 -21 -200 -29 -389 -16 -402 15 -15 99 -17 127 -2 14 7 25 11 25 9 0 -8 78 24 178 73 56 28 102 48 102 44 0 -4 4 -2 8 4 8 12 133 74 143 71 4 -1 16 7 28 17 12 11 21 15 21 11 0 -4 9 0 20 10 11 10 20 15 20 11 0 -3 23 10 50 29 28 19 50 32 50 29 0 -4 8 0 17 8 16 13 53 33 250 133 23 12 49 28 58 35 8 7 15 9 15 4 0 -4 12 4 28 17 15 14 52 42 83 62 38 24 59 46 63 63 7 27 -5 189 -14 189 -1 0 -3 9 -5 20 -2 11 -7 36 -11 55 -4 19 -8 40 -10 47 -1 6 -5 29 -8 50 -3 21 -10 54 -14 73 -5 19 -10 40 -10 45 -1 6 -4 24 -7 40 -3 17 -7 44 -9 60 -2 17 -5 30 -6 30 -1 0 -3 9 -5 20 -2 11 -9 49 -16 85 -7 36 -13 74 -14 85 -1 11 -5 27 -8 35 -4 8 -8 29 -11 45 -2 17 -5 31 -6 33 -3 3 -5 11 -14 65 -4 27 -9 59 -12 70 -7 37 -31 173 -40 232 -9 62 -27 161 -38 215 -4 19 -9 44 -11 55 -2 11 -4 20 -5 20 -1 0 -4 11 -7 25 -7 39 -11 55 -13 55 -1 0 -4 16 -6 35 -9 63 -11 75 -18 105 -22 93 -26 113 -31 140 -8 46 -16 85 -28 140 -4 17 -9 46 -12 65 -11 94 -48 254 -64 274 -5 6 -9 43 -10 81 -2 64 0 73 23 94 14 14 26 22 26 18 0 -3 17 0 38 6 62 22 669 15 752 -8 38 -11 93 -17 177 -20 56 -2 107 -6 112 -10 6 -3 44 -8 84 -10 41 -2 85 -8 98 -13 13 -5 61 -10 107 -11 84 -3 90 0 83 42 -1 4 -2 15 -4 25 -1 9 -30 73 -64 142 -34 69 -65 137 -68 153 -4 15 -11 30 -16 33 -5 3 -9 15 -9 28 0 12 -4 26 -9 31 -5 6 -14 28 -21 50 -7 22 -16 45 -20 50 -4 6 -17 42 -30 80 -12 39 -26 74 -31 80 -5 5 -9 17 -9 27 0 9 -9 34 -20 53 -11 20 -22 44 -23 53 -2 9 -14 40 -27 67 -13 28 -23 53 -22 57 1 3 -5 12 -13 18 -8 7 -15 18 -15 24 0 38 -87 76 -160 70 -36 -3 -85 -11 -85 -14 0 -1 -8 -3 -17 -5 -23 -4 -91 -26 -103 -34 -5 -3 -19 -7 -29 -8 -11 -2 -25 -8 -33 -14 -7 -6 -13 -9 -13 -6 0 5 -91 -23 -130 -40 -8 -3 -17 -7 -20 -8 -3 -1 -18 -8 -35 -15 -16 -7 -36 -14 -43 -16 -7 -1 -25 -10 -40 -20 -15 -10 -36 -19 -48 -19 -12 -1 -30 -5 -40 -10 -10 -5 -21 -9 -24 -10 -3 -1 -12 -4 -20 -7 -31 -12 -97 -27 -140 -33 -25 -3 -58 -9 -75 -12 -47 -9 -527 1 -575 12 -14 3 -41 7 -60 10 -75 8 -135 17 -141 21 -3 2 -21 6 -39 9 -19 3 -39 9 -45 14 -5 4 -17 7 -25 6 -8 -1 -32 5 -52 12 -21 6 -38 10 -38 8 0 -2 -17 2 -37 9 -21 7 -42 14 -48 16 -5 1 -21 6 -35 11 -48 18 -55 20 -60 20 -3 1 -10 5 -15 9 -6 5 -25 11 -42 15 -18 3 -43 9 -57 15 -15 5 -26 7 -26 4 0 -2 -13 2 -30 11 -16 9 -30 13 -30 9 0 -4 -6 -2 -12 3 -7 6 -38 18 -68 28 -30 10 -61 22 -67 28 -7 5 -13 6 -13 2 0 -4 -6 -3 -12 2 -7 6 -31 16 -53 23 -22 7 -70 28 -107 46 -38 18 -68 30 -68 26 0 -3 -5 -1 -12 6 -11 11 -75 15 -109 5z"/>
  </g>
</svg>
